<svg id="svg" version="1.1" xmlns="http://www.w3.org/2000/svg" xmlns:xlink="http://www.w3.org/1999/xlink" width="400" height="118" viewBox="0, 0, 400,118"><g id="svgg"><path id="path0" d="M159.417 3.333 C 159.360 3.425,159.056 3.500,158.740 3.500 C 158.425 3.500,158.167 3.575,158.167 3.667 C 158.167 3.758,158.051 3.833,157.909 3.833 C 157.576 3.833,156.833 4.576,156.833 4.909 C 156.833 5.051,156.758 5.167,156.667 5.167 C 156.575 5.167,156.500 5.317,156.500 5.500 C 156.500 5.683,156.425 5.833,156.333 5.833 C 156.242 5.833,156.167 5.983,156.167 6.167 C 156.167 6.350,156.092 6.500,156.000 6.500 C 155.908 6.500,155.833 6.646,155.833 6.823 C 155.833 7.001,155.758 7.193,155.667 7.250 C 155.575 7.307,155.500 7.536,155.500 7.760 C 155.500 7.984,155.425 8.167,155.333 8.167 C 155.242 8.167,155.167 8.317,155.167 8.500 C 155.167 8.683,155.092 8.833,155.000 8.833 C 154.908 8.833,154.833 8.983,154.833 9.167 C 154.833 9.350,154.758 9.500,154.667 9.500 C 154.575 9.500,154.500 9.683,154.500 9.907 C 154.500 10.131,154.425 10.360,154.333 10.417 C 154.242 10.473,154.167 10.665,154.167 10.843 C 154.167 11.021,154.092 11.167,154.000 11.167 C 153.908 11.167,153.833 11.317,153.833 11.500 C 153.833 11.683,153.758 11.833,153.667 11.833 C 153.575 11.833,153.500 11.979,153.500 12.157 C 153.500 12.335,153.425 12.527,153.333 12.583 C 153.242 12.640,153.167 12.869,153.167 13.093 C 153.167 13.317,153.092 13.500,153.000 13.500 C 152.908 13.500,152.833 13.650,152.833 13.833 C 152.833 14.017,152.758 14.167,152.667 14.167 C 152.575 14.167,152.500 14.312,152.500 14.490 C 152.500 14.668,152.425 14.860,152.333 14.917 C 152.242 14.973,152.167 15.203,152.167 15.427 C 152.167 15.650,152.092 15.833,152.000 15.833 C 151.908 15.833,151.833 15.983,151.833 16.167 C 151.833 16.350,151.758 16.500,151.667 16.500 C 151.575 16.500,151.500 16.650,151.500 16.833 C 151.500 17.017,151.425 17.167,151.333 17.167 C 151.242 17.167,151.167 17.350,151.167 17.573 C 151.167 17.797,151.092 18.027,151.000 18.083 C 150.908 18.140,150.833 18.332,150.833 18.510 C 150.833 18.688,150.758 18.833,150.667 18.833 C 150.575 18.833,150.500 18.983,150.500 19.167 C 150.500 19.350,150.425 19.500,150.333 19.500 C 150.242 19.500,150.167 19.646,150.167 19.823 C 150.167 20.001,150.092 20.193,150.000 20.250 C 149.908 20.307,149.833 20.536,149.833 20.760 C 149.833 20.984,149.758 21.167,149.667 21.167 C 149.575 21.167,149.500 21.317,149.500 21.500 C 149.500 21.683,149.425 21.833,149.333 21.833 C 149.242 21.833,149.167 21.983,149.167 22.167 C 149.167 22.350,149.092 22.500,149.000 22.500 C 148.908 22.500,148.833 22.683,148.833 22.907 C 148.833 23.131,148.758 23.360,148.667 23.417 C 148.575 23.473,148.500 23.665,148.500 23.843 C 148.500 24.021,148.425 24.167,148.333 24.167 C 148.242 24.167,148.167 24.317,148.167 24.500 C 148.167 24.683,148.092 24.833,148.000 24.833 C 147.908 24.833,147.833 24.979,147.833 25.157 C 147.833 25.335,147.758 25.527,147.667 25.583 C 147.575 25.640,147.500 25.869,147.500 26.093 C 147.500 26.317,147.425 26.500,147.333 26.500 C 147.242 26.500,147.167 26.650,147.167 26.833 C 147.167 27.017,147.092 27.167,147.000 27.167 C 146.908 27.167,146.833 27.312,146.833 27.490 C 146.833 27.668,146.758 27.860,146.667 27.917 C 146.575 27.973,146.500 28.203,146.500 28.427 C 146.500 28.650,146.425 28.833,146.333 28.833 C 146.242 28.833,146.167 28.983,146.167 29.167 C 146.167 29.350,146.092 29.500,146.000 29.500 C 145.908 29.500,145.833 29.650,145.833 29.833 C 145.833 30.017,145.758 30.167,145.667 30.167 C 145.575 30.167,145.500 30.350,145.500 30.573 C 145.500 30.797,145.425 31.027,145.333 31.083 C 145.242 31.140,145.167 31.332,145.167 31.510 C 145.167 31.688,145.092 31.833,145.000 31.833 C 144.908 31.833,144.833 31.983,144.833 32.167 C 144.833 32.350,144.758 32.500,144.667 32.500 C 144.575 32.500,144.500 32.646,144.500 32.823 C 144.500 33.001,144.425 33.193,144.333 33.250 C 144.242 33.307,144.167 33.536,144.167 33.760 C 144.167 33.984,144.092 34.167,144.000 34.167 C 143.908 34.167,143.833 34.317,143.833 34.500 C 143.833 34.683,143.758 34.833,143.667 34.833 C 143.575 34.833,143.500 34.983,143.500 35.167 C 143.500 35.350,143.425 35.500,143.333 35.500 C 143.242 35.500,143.167 35.725,143.167 36.000 C 143.167 36.275,143.092 36.500,143.000 36.500 C 142.908 36.500,142.833 36.650,142.833 36.833 C 142.833 37.017,142.758 37.167,142.667 37.167 C 142.575 37.167,142.500 37.317,142.500 37.500 C 142.500 37.683,142.425 37.833,142.333 37.833 C 142.242 37.833,142.167 37.979,142.167 38.157 C 142.167 38.335,142.092 38.527,142.000 38.583 C 141.908 38.640,141.833 38.869,141.833 39.093 C 141.833 39.317,141.758 39.500,141.667 39.500 C 141.575 39.500,141.500 39.650,141.500 39.833 C 141.500 40.017,141.425 40.167,141.333 40.167 C 141.242 40.167,141.167 40.312,141.167 40.490 C 141.167 40.668,141.092 40.860,141.000 40.917 C 140.908 40.973,140.833 41.203,140.833 41.427 C 140.833 41.650,140.758 41.833,140.667 41.833 C 140.575 41.833,140.500 41.983,140.500 42.167 C 140.500 42.350,140.425 42.500,140.333 42.500 C 140.242 42.500,140.167 42.650,140.167 42.833 C 140.167 43.017,140.092 43.167,140.000 43.167 C 139.908 43.167,139.833 43.350,139.833 43.573 C 139.833 43.797,139.758 44.027,139.667 44.083 C 139.575 44.140,139.500 44.332,139.500 44.510 C 139.500 44.688,139.425 44.833,139.333 44.833 C 139.242 44.833,139.167 44.983,139.167 45.167 C 139.167 45.350,139.092 45.500,139.000 45.500 C 138.908 45.500,138.833 45.646,138.833 45.823 C 138.833 46.001,138.758 46.193,138.667 46.250 C 138.575 46.307,138.500 46.536,138.500 46.760 C 138.500 46.984,138.425 47.167,138.333 47.167 C 138.242 47.167,138.167 47.317,138.167 47.500 C 138.167 47.683,138.092 47.833,138.000 47.833 C 137.908 47.833,137.833 47.983,137.833 48.167 C 137.833 48.350,137.758 48.500,137.667 48.500 C 137.575 48.500,137.500 48.683,137.500 48.907 C 137.500 49.131,137.425 49.360,137.333 49.417 C 137.242 49.473,137.167 49.665,137.167 49.843 C 137.167 50.021,137.092 50.167,137.000 50.167 C 136.908 50.167,136.833 50.317,136.833 50.500 C 136.833 50.683,136.758 50.833,136.667 50.833 C 136.575 50.833,136.500 50.979,136.500 51.157 C 136.500 51.335,136.425 51.527,136.333 51.583 C 136.242 51.640,136.167 51.869,136.167 52.093 C 136.167 52.317,136.092 52.500,136.000 52.500 C 135.908 52.500,135.833 52.650,135.833 52.833 C 135.833 53.017,135.758 53.167,135.667 53.167 C 135.575 53.167,135.500 53.312,135.500 53.490 C 135.500 53.668,135.425 53.860,135.333 53.917 C 135.242 53.973,135.167 54.203,135.167 54.427 C 135.167 54.650,135.092 54.833,135.000 54.833 C 134.908 54.833,134.833 54.983,134.833 55.167 C 134.833 55.350,134.758 55.500,134.667 55.500 C 134.575 55.500,134.500 55.650,134.500 55.833 C 134.500 56.017,134.425 56.167,134.333 56.167 C 134.242 56.167,134.167 56.350,134.167 56.573 C 134.167 56.797,134.092 57.027,134.000 57.083 C 133.908 57.140,133.833 57.332,133.833 57.510 C 133.833 57.688,133.758 57.833,133.667 57.833 C 133.575 57.833,133.500 57.983,133.500 58.167 C 133.500 58.350,133.425 58.500,133.333 58.500 C 133.242 58.500,133.167 58.646,133.167 58.823 C 133.167 59.001,133.092 59.193,133.000 59.250 C 132.908 59.307,132.833 59.536,132.833 59.760 C 132.833 59.984,132.758 60.167,132.667 60.167 C 132.575 60.167,132.500 60.317,132.500 60.500 C 132.500 60.683,132.425 60.833,132.333 60.833 C 132.242 60.833,132.167 60.983,132.167 61.167 C 132.167 61.350,132.092 61.500,132.000 61.500 C 131.908 61.500,131.833 61.683,131.833 61.907 C 131.833 62.131,131.758 62.360,131.667 62.417 C 131.575 62.473,131.500 62.665,131.500 62.843 C 131.500 63.021,131.425 63.167,131.333 63.167 C 131.242 63.167,131.167 63.317,131.167 63.500 C 131.167 63.683,131.092 63.833,131.000 63.833 C 130.908 63.833,130.833 63.979,130.833 64.157 C 130.833 64.335,130.758 64.527,130.667 64.583 C 130.575 64.640,130.500 64.869,130.500 65.093 C 130.500 65.317,130.425 65.500,130.333 65.500 C 130.242 65.500,130.167 65.650,130.167 65.833 C 130.167 66.017,130.092 66.167,130.000 66.167 C 129.908 66.167,129.833 66.312,129.833 66.490 C 129.833 66.668,129.758 66.860,129.667 66.917 C 129.575 66.973,129.500 67.203,129.500 67.427 C 129.500 67.650,129.425 67.833,129.333 67.833 C 129.242 67.833,129.167 67.983,129.167 68.167 C 129.167 68.350,129.092 68.500,129.000 68.500 C 128.908 68.500,128.833 68.650,128.833 68.833 C 128.833 69.017,128.758 69.167,128.667 69.167 C 128.575 69.167,128.500 69.312,128.500 69.490 C 128.500 69.668,128.425 69.860,128.333 69.917 C 128.242 69.973,128.167 70.203,128.167 70.427 C 128.167 70.650,128.092 70.833,128.000 70.833 C 127.908 70.833,127.833 70.983,127.833 71.167 C 127.833 71.350,127.758 71.500,127.667 71.500 C 127.575 71.500,127.500 71.646,127.500 71.823 C 127.500 72.001,127.425 72.193,127.333 72.250 C 127.242 72.307,127.167 72.536,127.167 72.760 C 127.167 72.984,127.092 73.167,127.000 73.167 C 126.908 73.167,126.833 73.317,126.833 73.500 C 126.833 73.683,126.758 73.833,126.667 73.833 C 126.575 73.833,126.500 73.983,126.500 74.167 C 126.500 74.350,126.425 74.500,126.333 74.500 C 126.242 74.500,126.167 74.646,126.167 74.823 C 126.167 75.001,126.092 75.193,126.000 75.250 C 125.908 75.307,125.833 75.536,125.833 75.760 C 125.833 75.984,125.758 76.167,125.667 76.167 C 125.575 76.167,125.500 76.317,125.500 76.500 C 125.500 76.683,125.425 76.833,125.333 76.833 C 125.242 76.833,125.167 76.979,125.167 77.157 C 125.167 77.335,125.092 77.527,125.000 77.583 C 124.908 77.640,124.833 77.869,124.833 78.093 C 124.833 78.317,124.758 78.500,124.667 78.500 C 124.575 78.500,124.500 78.650,124.500 78.833 C 124.500 79.017,124.425 79.167,124.333 79.167 C 124.242 79.167,124.167 79.317,124.167 79.500 C 124.167 79.683,124.092 79.833,124.000 79.833 C 123.908 79.833,123.833 79.979,123.833 80.157 C 123.833 80.335,123.758 80.527,123.667 80.583 C 123.575 80.640,123.500 80.869,123.500 81.093 C 123.500 81.317,123.425 81.500,123.333 81.500 C 123.242 81.500,123.167 81.650,123.167 81.833 C 123.167 82.017,123.092 82.167,123.000 82.167 C 122.908 82.167,122.833 82.312,122.833 82.490 C 122.833 82.668,122.758 82.860,122.667 82.917 C 122.575 82.973,122.500 83.203,122.500 83.427 C 122.500 83.650,122.425 83.833,122.333 83.833 C 122.242 83.833,122.167 83.983,122.167 84.167 C 122.167 84.350,122.092 84.500,122.000 84.500 C 121.908 84.500,121.833 84.650,121.833 84.833 C 121.833 85.017,121.758 85.167,121.667 85.167 C 121.575 85.167,121.500 85.312,121.500 85.490 C 121.500 85.668,121.425 85.860,121.333 85.917 C 121.242 85.973,121.167 86.203,121.167 86.427 C 121.167 86.650,121.092 86.833,121.000 86.833 C 120.908 86.833,120.833 86.983,120.833 87.167 C 120.833 87.350,120.758 87.500,120.667 87.500 C 120.575 87.500,120.500 87.646,120.500 87.823 C 120.500 88.001,120.425 88.193,120.333 88.250 C 120.242 88.307,120.167 88.536,120.167 88.760 C 120.167 88.984,120.092 89.167,120.000 89.167 C 119.908 89.167,119.833 89.317,119.833 89.500 C 119.833 89.683,119.758 89.833,119.667 89.833 C 119.575 89.833,119.500 89.983,119.500 90.167 C 119.500 90.350,119.425 90.500,119.333 90.500 C 119.242 90.500,119.167 90.646,119.167 90.823 C 119.167 91.001,119.092 91.193,119.000 91.250 C 118.908 91.307,118.833 91.536,118.833 91.760 C 118.833 91.984,118.758 92.167,118.667 92.167 C 118.575 92.167,118.500 92.317,118.500 92.500 C 118.500 92.683,118.425 92.833,118.333 92.833 C 118.242 92.833,118.167 92.979,118.167 93.157 C 118.167 93.335,118.092 93.527,118.000 93.583 C 117.908 93.640,117.833 93.869,117.833 94.093 C 117.833 94.317,117.758 94.500,117.667 94.500 C 117.575 94.500,117.500 94.650,117.500 94.833 C 117.500 95.017,117.425 95.167,117.333 95.167 C 117.242 95.167,117.167 95.317,117.167 95.500 C 117.167 95.683,117.092 95.833,117.000 95.833 C 116.908 95.833,116.833 95.979,116.833 96.157 C 116.833 96.335,116.758 96.527,116.667 96.583 C 116.575 96.640,116.500 96.869,116.500 97.093 C 116.500 97.317,116.425 97.500,116.333 97.500 C 116.242 97.500,116.167 97.650,116.167 97.833 C 116.167 98.017,116.092 98.167,116.000 98.167 C 115.908 98.167,115.833 98.317,115.833 98.500 C 115.833 98.683,115.758 98.833,115.667 98.833 C 115.575 98.833,115.500 99.016,115.500 99.240 C 115.500 99.464,115.425 99.693,115.333 99.750 C 115.242 99.807,115.167 99.999,115.167 100.177 C 115.167 100.354,115.092 100.500,115.000 100.500 C 114.908 100.500,114.833 100.650,114.833 100.833 C 114.833 101.017,114.758 101.167,114.667 101.167 C 114.575 101.167,114.500 101.312,114.500 101.490 C 114.500 101.668,114.425 101.860,114.333 101.917 C 114.242 101.973,114.167 102.203,114.167 102.427 C 114.167 102.650,114.092 102.833,114.000 102.833 C 113.908 102.833,113.833 102.983,113.833 103.167 C 113.833 103.350,113.758 103.500,113.667 103.500 C 113.575 103.500,113.500 103.650,113.500 103.833 C 113.500 104.017,113.425 104.167,113.333 104.167 C 113.242 104.167,113.167 104.312,113.167 104.490 C 113.167 104.668,113.092 104.860,113.000 104.917 C 112.908 104.973,112.833 105.203,112.833 105.427 C 112.833 105.650,112.758 105.833,112.667 105.833 C 112.575 105.833,112.500 105.983,112.500 106.167 C 112.500 106.350,112.425 106.500,112.333 106.500 C 112.242 106.500,112.167 106.650,112.167 106.833 C 112.167 107.017,112.092 107.167,112.000 107.167 C 111.908 107.167,111.833 107.350,111.833 107.573 C 111.833 107.797,111.758 108.027,111.667 108.083 C 111.575 108.140,111.500 108.332,111.500 108.510 C 111.500 108.688,111.425 108.833,111.333 108.833 C 111.242 108.833,111.167 108.983,111.167 109.167 C 111.167 109.350,111.092 109.500,111.000 109.500 C 110.908 109.500,110.833 109.650,110.833 109.833 C 110.833 110.017,110.758 110.167,110.667 110.167 C 110.575 110.167,110.500 110.350,110.500 110.573 C 110.500 110.797,110.425 111.027,110.333 111.083 C 110.242 111.140,110.167 111.332,110.167 111.510 C 110.167 111.688,110.092 111.833,110.000 111.833 C 109.908 111.833,109.833 112.134,109.833 112.501 L 109.833 113.169 122.292 113.126 L 134.750 113.083 134.803 112.625 C 134.832 112.373,134.925 112.167,135.011 112.167 C 135.097 112.167,135.167 112.021,135.167 111.843 C 135.167 111.665,135.242 111.473,135.333 111.417 C 135.425 111.360,135.500 111.131,135.500 110.907 C 135.500 110.683,135.575 110.500,135.667 110.500 C 135.758 110.500,135.833 110.350,135.833 110.167 C 135.833 109.983,135.908 109.833,136.000 109.833 C 136.092 109.833,136.167 109.608,136.167 109.333 C 136.167 109.058,136.242 108.833,136.333 108.833 C 136.425 108.833,136.500 108.683,136.500 108.500 C 136.500 108.317,136.575 108.167,136.667 108.167 C 136.758 108.167,136.833 107.984,136.833 107.760 C 136.833 107.536,136.908 107.307,137.000 107.250 C 137.092 107.193,137.167 107.001,137.167 106.823 C 137.167 106.646,137.242 106.500,137.333 106.500 C 137.425 106.500,137.500 106.354,137.500 106.177 C 137.500 105.999,137.575 105.807,137.667 105.750 C 137.758 105.693,137.833 105.464,137.833 105.240 C 137.833 105.016,137.908 104.833,138.000 104.833 C 138.092 104.833,138.167 104.688,138.167 104.510 C 138.167 104.332,138.242 104.140,138.333 104.083 C 138.425 104.027,138.500 103.797,138.500 103.573 C 138.500 103.350,138.575 103.167,138.667 103.167 C 138.758 103.167,138.833 103.017,138.833 102.833 C 138.833 102.650,138.908 102.500,139.000 102.500 C 139.092 102.500,139.167 102.275,139.167 102.000 C 139.167 101.725,139.242 101.500,139.333 101.500 C 139.425 101.500,139.500 101.382,139.500 101.238 C 139.500 100.474,138.862 100.500,157.905 100.500 C 175.722 100.500,175.833 100.502,175.833 100.833 C 175.833 101.017,175.908 101.167,176.000 101.167 C 176.092 101.167,176.167 101.350,176.167 101.573 C 176.167 101.797,176.242 102.027,176.333 102.083 C 176.425 102.140,176.500 102.332,176.500 102.510 C 176.500 102.688,176.575 102.833,176.667 102.833 C 176.758 102.833,176.833 102.979,176.833 103.157 C 176.833 103.335,176.908 103.527,177.000 103.583 C 177.092 103.640,177.167 103.869,177.167 104.093 C 177.167 104.317,177.242 104.500,177.333 104.500 C 177.425 104.500,177.500 104.650,177.500 104.833 C 177.500 105.017,177.575 105.167,177.667 105.167 C 177.758 105.167,177.833 105.392,177.833 105.667 C 177.833 105.942,177.908 106.167,178.000 106.167 C 178.092 106.167,178.167 106.317,178.167 106.500 C 178.167 106.683,178.242 106.833,178.333 106.833 C 178.425 106.833,178.500 107.058,178.500 107.333 C 178.500 107.608,178.575 107.833,178.667 107.833 C 178.758 107.833,178.833 107.983,178.833 108.167 C 178.833 108.350,178.908 108.500,179.000 108.500 C 179.092 108.500,179.167 108.683,179.167 108.907 C 179.167 109.131,179.242 109.360,179.333 109.417 C 179.425 109.473,179.500 109.665,179.500 109.843 C 179.500 110.021,179.575 110.167,179.667 110.167 C 179.758 110.167,179.833 110.312,179.833 110.490 C 179.833 110.668,179.908 110.860,180.000 110.917 C 180.092 110.973,180.167 111.203,180.167 111.427 C 180.167 111.650,180.242 111.833,180.333 111.833 C 180.425 111.833,180.500 111.983,180.500 112.167 C 180.500 112.350,180.575 112.500,180.667 112.500 C 180.758 112.500,180.833 112.650,180.833 112.833 C 180.833 113.164,180.944 113.167,195.500 113.167 L 210.167 113.167 210.167 112.667 C 210.167 112.392,210.092 112.167,210.000 112.167 C 209.908 112.167,209.833 112.017,209.833 111.833 C 209.833 111.650,209.758 111.500,209.667 111.500 C 209.575 111.500,209.500 111.350,209.500 111.167 C 209.500 110.983,209.425 110.833,209.333 110.833 C 209.242 110.833,209.167 110.688,209.167 110.510 C 209.167 110.332,209.092 110.140,209.000 110.083 C 208.908 110.027,208.833 109.797,208.833 109.573 C 208.833 109.350,208.758 109.167,208.667 109.167 C 208.575 109.167,208.500 109.017,208.500 108.833 C 208.500 108.650,208.425 108.500,208.333 108.500 C 208.242 108.500,208.167 108.350,208.167 108.167 C 208.167 107.983,208.092 107.833,208.000 107.833 C 207.908 107.833,207.833 107.650,207.833 107.427 C 207.833 107.203,207.758 106.973,207.667 106.917 C 207.575 106.860,207.500 106.668,207.500 106.490 C 207.500 106.312,207.425 106.167,207.333 106.167 C 207.242 106.167,207.167 106.017,207.167 105.833 C 207.167 105.650,207.092 105.500,207.000 105.500 C 206.908 105.500,206.833 105.350,206.833 105.167 C 206.833 104.983,206.758 104.833,206.667 104.833 C 206.575 104.833,206.500 104.650,206.500 104.427 C 206.500 104.203,206.425 103.973,206.333 103.917 C 206.242 103.860,206.167 103.668,206.167 103.490 C 206.167 103.312,206.092 103.167,206.000 103.167 C 205.908 103.167,205.833 103.017,205.833 102.833 C 205.833 102.650,205.758 102.500,205.667 102.500 C 205.575 102.500,205.500 102.386,205.500 102.248 C 205.500 102.109,205.425 101.846,205.333 101.664 C 205.242 101.482,205.092 101.184,205.000 101.002 C 204.908 100.820,204.833 100.558,204.833 100.419 C 204.833 100.280,204.758 100.167,204.667 100.167 C 204.575 100.167,204.500 100.017,204.500 99.833 C 204.500 99.650,204.425 99.500,204.333 99.500 C 204.242 99.500,204.167 99.354,204.167 99.177 C 204.167 98.999,204.092 98.807,204.000 98.750 C 203.908 98.693,203.833 98.464,203.833 98.240 C 203.833 98.016,203.758 97.833,203.667 97.833 C 203.575 97.833,203.500 97.683,203.500 97.500 C 203.500 97.317,203.425 97.167,203.333 97.167 C 203.242 97.167,203.167 97.017,203.167 96.833 C 203.167 96.650,203.092 96.500,203.000 96.500 C 202.908 96.500,202.833 96.317,202.833 96.093 C 202.833 95.869,202.758 95.640,202.667 95.583 C 202.575 95.527,202.500 95.335,202.500 95.157 C 202.500 94.979,202.425 94.833,202.333 94.833 C 202.242 94.833,202.167 94.683,202.167 94.500 C 202.167 94.317,202.092 94.167,202.000 94.167 C 201.908 94.167,201.833 94.021,201.833 93.843 C 201.833 93.665,201.758 93.473,201.667 93.417 C 201.575 93.360,201.500 93.131,201.500 92.907 C 201.500 92.683,201.425 92.500,201.333 92.500 C 201.242 92.500,201.167 92.350,201.167 92.167 C 201.167 91.983,201.092 91.833,201.000 91.833 C 200.908 91.833,200.833 91.683,200.833 91.500 C 200.833 91.317,200.758 91.167,200.667 91.167 C 200.575 91.167,200.500 90.984,200.500 90.760 C 200.500 90.536,200.425 90.307,200.333 90.250 C 200.242 90.193,200.167 90.001,200.167 89.823 C 200.167 89.646,200.092 89.500,200.000 89.500 C 199.908 89.500,199.833 89.350,199.833 89.167 C 199.833 88.983,199.758 88.833,199.667 88.833 C 199.575 88.833,199.500 88.688,199.500 88.510 C 199.500 88.332,199.425 88.140,199.333 88.083 C 199.242 88.027,199.167 87.797,199.167 87.573 C 199.167 87.350,199.092 87.167,199.000 87.167 C 198.908 87.167,198.833 87.017,198.833 86.833 C 198.833 86.650,198.758 86.500,198.667 86.500 C 198.575 86.500,198.500 86.350,198.500 86.167 C 198.500 85.983,198.425 85.833,198.333 85.833 C 198.242 85.833,198.167 85.650,198.167 85.427 C 198.167 85.203,198.092 84.973,198.000 84.917 C 197.908 84.860,197.833 84.668,197.833 84.490 C 197.833 84.312,197.758 84.167,197.667 84.167 C 197.575 84.167,197.500 84.017,197.500 83.833 C 197.500 83.650,197.425 83.500,197.333 83.500 C 197.242 83.500,197.167 83.354,197.167 83.177 C 197.167 82.999,197.092 82.807,197.000 82.750 C 196.908 82.693,196.833 82.464,196.833 82.240 C 196.833 82.016,196.758 81.833,196.667 81.833 C 196.575 81.833,196.500 81.683,196.500 81.500 C 196.500 81.317,196.425 81.167,196.333 81.167 C 196.242 81.167,196.167 81.017,196.167 80.833 C 196.167 80.650,196.092 80.500,196.000 80.500 C 195.908 80.500,195.833 80.317,195.833 80.093 C 195.833 79.869,195.758 79.640,195.667 79.583 C 195.575 79.527,195.500 79.335,195.500 79.157 C 195.500 78.979,195.425 78.833,195.333 78.833 C 195.242 78.833,195.167 78.683,195.167 78.500 C 195.167 78.317,195.092 78.167,195.000 78.167 C 194.908 78.167,194.833 78.053,194.833 77.914 C 194.833 77.776,194.758 77.513,194.667 77.331 C 194.575 77.149,194.425 76.851,194.333 76.669 C 194.242 76.487,194.167 76.224,194.167 76.086 C 194.167 75.947,194.092 75.833,194.000 75.833 C 193.908 75.833,193.833 75.683,193.833 75.500 C 193.833 75.317,193.758 75.167,193.667 75.167 C 193.575 75.167,193.500 74.984,193.500 74.760 C 193.500 74.536,193.425 74.307,193.333 74.250 C 193.242 74.193,193.167 74.001,193.167 73.823 C 193.167 73.646,193.092 73.500,193.000 73.500 C 192.908 73.500,192.833 73.350,192.833 73.167 C 192.833 72.983,192.758 72.833,192.667 72.833 C 192.575 72.833,192.500 72.683,192.500 72.500 C 192.500 72.317,192.425 72.167,192.333 72.167 C 192.242 72.167,192.167 71.942,192.167 71.667 C 192.167 71.392,192.092 71.167,192.000 71.167 C 191.908 71.167,191.833 71.017,191.833 70.833 C 191.833 70.650,191.758 70.500,191.667 70.500 C 191.575 70.500,191.500 70.350,191.500 70.167 C 191.500 69.983,191.425 69.833,191.333 69.833 C 191.242 69.833,191.167 69.650,191.167 69.427 C 191.167 69.203,191.092 68.973,191.000 68.917 C 190.908 68.860,190.833 68.668,190.833 68.490 C 190.833 68.312,190.758 68.167,190.667 68.167 C 190.575 68.167,190.500 68.017,190.500 67.833 C 190.500 67.650,190.425 67.500,190.333 67.500 C 190.242 67.500,190.167 67.350,190.167 67.167 C 190.167 66.983,190.092 66.833,190.000 66.833 C 189.908 66.833,189.833 66.608,189.833 66.333 C 189.833 66.058,189.758 65.833,189.667 65.833 C 189.575 65.833,189.500 65.683,189.500 65.500 C 189.500 65.317,189.425 65.167,189.333 65.167 C 189.242 65.167,189.167 65.017,189.167 64.833 C 189.167 64.650,189.092 64.500,189.000 64.500 C 188.908 64.500,188.833 64.317,188.833 64.093 C 188.833 63.869,188.758 63.640,188.667 63.583 C 188.575 63.527,188.500 63.335,188.500 63.157 C 188.500 62.979,188.425 62.833,188.333 62.833 C 188.242 62.833,188.167 62.683,188.167 62.500 C 188.167 62.317,188.092 62.167,188.000 62.167 C 187.908 62.167,187.833 62.021,187.833 61.843 C 187.833 61.665,187.758 61.473,187.667 61.417 C 187.575 61.360,187.500 61.131,187.500 60.907 C 187.500 60.683,187.425 60.500,187.333 60.500 C 187.242 60.500,187.167 60.350,187.167 60.167 C 187.167 59.983,187.092 59.833,187.000 59.833 C 186.908 59.833,186.833 59.683,186.833 59.500 C 186.833 59.317,186.758 59.167,186.667 59.167 C 186.575 59.167,186.500 58.984,186.500 58.760 C 186.500 58.536,186.425 58.307,186.333 58.250 C 186.242 58.193,186.167 58.001,186.167 57.823 C 186.167 57.646,186.092 57.500,186.000 57.500 C 185.908 57.500,185.833 57.350,185.833 57.167 C 185.833 56.983,185.758 56.833,185.667 56.833 C 185.575 56.833,185.500 56.650,185.500 56.427 C 185.500 56.203,185.425 55.973,185.333 55.917 C 185.242 55.860,185.167 55.668,185.167 55.490 C 185.167 55.312,185.092 55.167,185.000 55.167 C 184.908 55.167,184.833 55.017,184.833 54.833 C 184.833 54.650,184.758 54.500,184.667 54.500 C 184.575 54.500,184.500 54.354,184.500 54.177 C 184.500 53.999,184.425 53.807,184.333 53.750 C 184.242 53.693,184.167 53.464,184.167 53.240 C 184.167 53.016,184.092 52.833,184.000 52.833 C 183.908 52.833,183.833 52.683,183.833 52.500 C 183.833 52.317,183.758 52.167,183.667 52.167 C 183.575 52.167,183.500 52.017,183.500 51.833 C 183.500 51.650,183.425 51.500,183.333 51.500 C 183.242 51.500,183.167 51.317,183.167 51.093 C 183.167 50.869,183.092 50.640,183.000 50.583 C 182.908 50.527,182.833 50.335,182.833 50.157 C 182.833 49.979,182.758 49.833,182.667 49.833 C 182.575 49.833,182.500 49.683,182.500 49.500 C 182.500 49.317,182.425 49.167,182.333 49.167 C 182.242 49.167,182.167 49.021,182.167 48.843 C 182.167 48.665,182.092 48.473,182.000 48.417 C 181.908 48.360,181.833 48.131,181.833 47.907 C 181.833 47.683,181.758 47.500,181.667 47.500 C 181.575 47.500,181.500 47.350,181.500 47.167 C 181.500 46.983,181.425 46.833,181.333 46.833 C 181.242 46.833,181.167 46.683,181.167 46.500 C 181.167 46.317,181.092 46.167,181.000 46.167 C 180.908 46.167,180.833 45.984,180.833 45.760 C 180.833 45.536,180.758 45.307,180.667 45.250 C 180.575 45.193,180.500 45.001,180.500 44.823 C 180.500 44.646,180.425 44.500,180.333 44.500 C 180.242 44.500,180.167 44.350,180.167 44.167 C 180.167 43.983,180.092 43.833,180.000 43.833 C 179.908 43.833,179.833 43.650,179.833 43.427 C 179.833 43.203,179.758 42.973,179.667 42.917 C 179.575 42.860,179.500 42.668,179.500 42.490 C 179.500 42.312,179.425 42.167,179.333 42.167 C 179.242 42.167,179.167 42.017,179.167 41.833 C 179.167 41.650,179.092 41.500,179.000 41.500 C 178.908 41.500,178.833 41.354,178.833 41.177 C 178.833 40.999,178.758 40.807,178.667 40.750 C 178.575 40.693,178.500 40.464,178.500 40.240 C 178.500 40.016,178.425 39.833,178.333 39.833 C 178.242 39.833,178.167 39.683,178.167 39.500 C 178.167 39.317,178.092 39.167,178.000 39.167 C 177.908 39.167,177.833 39.017,177.833 38.833 C 177.833 38.650,177.758 38.500,177.667 38.500 C 177.575 38.500,177.500 38.317,177.500 38.093 C 177.500 37.869,177.425 37.640,177.333 37.583 C 177.242 37.527,177.167 37.335,177.167 37.157 C 177.167 36.979,177.092 36.833,177.000 36.833 C 176.908 36.833,176.833 36.683,176.833 36.500 C 176.833 36.317,176.758 36.167,176.667 36.167 C 176.575 36.167,176.500 36.021,176.500 35.843 C 176.500 35.665,176.425 35.473,176.333 35.417 C 176.242 35.360,176.167 35.131,176.167 34.907 C 176.167 34.683,176.092 34.500,176.000 34.500 C 175.908 34.500,175.833 34.350,175.833 34.167 C 175.833 33.983,175.758 33.833,175.667 33.833 C 175.575 33.833,175.500 33.720,175.500 33.581 C 175.500 33.442,175.413 33.161,175.307 32.956 C 174.903 32.174,174.833 31.997,174.833 31.752 C 174.833 31.614,174.758 31.500,174.667 31.500 C 174.575 31.500,174.500 31.350,174.500 31.167 C 174.500 30.983,174.425 30.833,174.333 30.833 C 174.242 30.833,174.167 30.650,174.167 30.427 C 174.167 30.203,174.092 29.973,174.000 29.917 C 173.908 29.860,173.833 29.668,173.833 29.490 C 173.833 29.312,173.758 29.167,173.667 29.167 C 173.575 29.167,173.500 29.017,173.500 28.833 C 173.500 28.650,173.425 28.500,173.333 28.500 C 173.242 28.500,173.167 28.354,173.167 28.177 C 173.167 27.999,173.092 27.807,173.000 27.750 C 172.908 27.693,172.833 27.464,172.833 27.240 C 172.833 27.016,172.758 26.833,172.667 26.833 C 172.575 26.833,172.500 26.683,172.500 26.500 C 172.500 26.317,172.425 26.167,172.333 26.167 C 172.242 26.167,172.167 26.017,172.167 25.833 C 172.167 25.650,172.092 25.500,172.000 25.500 C 171.908 25.500,171.833 25.317,171.833 25.093 C 171.833 24.869,171.758 24.640,171.667 24.583 C 171.575 24.527,171.500 24.335,171.500 24.157 C 171.500 23.979,171.425 23.833,171.333 23.833 C 171.242 23.833,171.167 23.683,171.167 23.500 C 171.167 23.317,171.092 23.167,171.000 23.167 C 170.908 23.167,170.833 22.984,170.833 22.760 C 170.833 22.536,170.758 22.307,170.667 22.250 C 170.575 22.193,170.500 22.001,170.500 21.823 C 170.500 21.646,170.425 21.500,170.333 21.500 C 170.242 21.500,170.167 21.350,170.167 21.167 C 170.167 20.983,170.092 20.833,170.000 20.833 C 169.908 20.833,169.833 20.688,169.833 20.510 C 169.833 20.332,169.758 20.140,169.667 20.083 C 169.575 20.027,169.500 19.797,169.500 19.573 C 169.500 19.350,169.425 19.167,169.333 19.167 C 169.242 19.167,169.167 19.017,169.167 18.833 C 169.167 18.650,169.092 18.500,169.000 18.500 C 168.908 18.500,168.833 18.350,168.833 18.167 C 168.833 17.983,168.758 17.833,168.667 17.833 C 168.575 17.833,168.500 17.650,168.500 17.427 C 168.500 17.203,168.425 16.973,168.333 16.917 C 168.242 16.860,168.167 16.668,168.167 16.490 C 168.167 16.312,168.092 16.167,168.000 16.167 C 167.908 16.167,167.833 16.017,167.833 15.833 C 167.833 15.650,167.758 15.500,167.667 15.500 C 167.575 15.500,167.500 15.354,167.500 15.177 C 167.500 14.999,167.425 14.807,167.333 14.750 C 167.242 14.693,167.167 14.464,167.167 14.240 C 167.167 14.016,167.092 13.833,167.000 13.833 C 166.908 13.833,166.833 13.683,166.833 13.500 C 166.833 13.317,166.758 13.167,166.667 13.167 C 166.575 13.167,166.500 13.017,166.500 12.833 C 166.500 12.650,166.425 12.500,166.333 12.500 C 166.242 12.500,166.167 12.317,166.167 12.093 C 166.167 11.869,166.092 11.640,166.000 11.583 C 165.908 11.527,165.833 11.335,165.833 11.157 C 165.833 10.979,165.758 10.833,165.667 10.833 C 165.575 10.833,165.500 10.683,165.500 10.500 C 165.500 10.317,165.425 10.167,165.333 10.167 C 165.242 10.167,165.167 9.984,165.167 9.760 C 165.167 9.536,165.092 9.307,165.000 9.250 C 164.908 9.193,164.833 9.001,164.833 8.823 C 164.833 8.646,164.758 8.500,164.667 8.500 C 164.575 8.500,164.500 8.350,164.500 8.167 C 164.500 7.983,164.425 7.833,164.333 7.833 C 164.242 7.833,164.167 7.688,164.167 7.510 C 164.167 7.332,164.092 7.140,164.000 7.083 C 163.908 7.027,163.833 6.797,163.833 6.573 C 163.833 6.350,163.758 6.167,163.667 6.167 C 163.575 6.167,163.500 6.017,163.500 5.833 C 163.500 5.650,163.425 5.500,163.333 5.500 C 163.242 5.500,163.167 5.380,163.167 5.233 C 163.167 4.733,161.672 3.500,161.067 3.500 C 160.766 3.500,160.473 3.425,160.417 3.333 C 160.360 3.242,160.135 3.167,159.917 3.167 C 159.698 3.167,159.473 3.242,159.417 3.333 M350.250 3.333 C 350.193 3.425,349.551 3.500,348.823 3.500 C 348.052 3.500,347.500 3.570,347.500 3.667 C 347.500 3.759,347.056 3.833,346.500 3.833 C 345.944 3.833,345.500 3.907,345.500 4.000 C 345.500 4.092,345.167 4.167,344.760 4.167 C 344.353 4.167,343.973 4.242,343.917 4.333 C 343.860 4.425,343.560 4.500,343.250 4.500 C 342.940 4.500,342.640 4.575,342.583 4.667 C 342.527 4.758,342.260 4.833,341.990 4.833 C 341.721 4.833,341.500 4.908,341.500 5.000 C 341.500 5.092,341.275 5.167,341.000 5.167 C 340.725 5.167,340.500 5.242,340.500 5.333 C 340.500 5.425,340.275 5.500,340.000 5.500 C 339.725 5.500,339.500 5.575,339.500 5.667 C 339.500 5.758,339.275 5.833,339.000 5.833 C 338.725 5.833,338.500 5.908,338.500 6.000 C 338.500 6.092,338.354 6.167,338.177 6.167 C 337.999 6.167,337.807 6.242,337.750 6.333 C 337.693 6.425,337.464 6.500,337.240 6.500 C 337.016 6.500,336.833 6.575,336.833 6.667 C 336.833 6.758,336.683 6.833,336.500 6.833 C 336.317 6.833,336.167 6.908,336.167 7.000 C 336.167 7.092,336.017 7.167,335.833 7.167 C 335.650 7.167,335.500 7.242,335.500 7.333 C 335.500 7.425,335.350 7.500,335.167 7.500 C 334.983 7.500,334.833 7.575,334.833 7.667 C 334.833 7.758,334.683 7.833,334.500 7.833 C 334.317 7.833,334.167 7.908,334.167 8.000 C 334.167 8.092,334.033 8.167,333.870 8.167 C 333.707 8.167,333.465 8.317,333.333 8.500 C 333.201 8.683,332.960 8.833,332.797 8.833 C 332.633 8.833,332.500 8.908,332.500 9.000 C 332.500 9.092,332.367 9.167,332.203 9.167 C 332.040 9.167,331.799 9.317,331.667 9.500 C 331.535 9.683,331.330 9.833,331.212 9.833 C 331.094 9.833,330.762 10.058,330.474 10.333 C 330.186 10.608,329.879 10.833,329.792 10.833 C 329.705 10.833,329.424 11.058,329.167 11.333 C 328.910 11.608,328.622 11.833,328.528 11.833 C 328.314 11.833,324.500 15.594,324.500 15.805 C 324.500 15.890,324.200 16.269,323.833 16.647 C 323.467 17.025,323.167 17.398,323.167 17.475 C 323.167 17.553,322.942 17.853,322.667 18.140 C 322.392 18.428,322.167 18.742,322.167 18.839 C 322.167 18.935,322.017 19.175,321.833 19.372 C 321.650 19.569,321.500 19.828,321.500 19.948 C 321.500 20.068,321.425 20.167,321.333 20.167 C 321.242 20.167,321.167 20.282,321.167 20.424 C 321.167 20.565,321.017 20.842,320.833 21.038 C 320.650 21.235,320.500 21.495,320.500 21.615 C 320.500 21.735,320.425 21.833,320.333 21.833 C 320.242 21.833,320.167 21.983,320.167 22.167 C 320.167 22.350,320.092 22.500,320.000 22.500 C 319.908 22.500,319.833 22.650,319.833 22.833 C 319.833 23.017,319.758 23.167,319.667 23.167 C 319.575 23.167,319.500 23.317,319.500 23.500 C 319.500 23.683,319.425 23.833,319.333 23.833 C 319.242 23.833,319.167 24.016,319.167 24.240 C 319.167 24.464,319.092 24.693,319.000 24.750 C 318.908 24.807,318.833 24.999,318.833 25.177 C 318.833 25.354,318.758 25.500,318.667 25.500 C 318.575 25.500,318.500 25.683,318.500 25.907 C 318.500 26.131,318.425 26.360,318.333 26.417 C 318.242 26.473,318.167 26.698,318.167 26.917 C 318.167 27.135,318.092 27.360,318.000 27.417 C 317.908 27.473,317.833 27.740,317.833 28.010 C 317.833 28.279,317.758 28.500,317.667 28.500 C 317.575 28.500,317.500 28.758,317.500 29.073 C 317.500 29.389,317.425 29.693,317.333 29.750 C 317.242 29.807,317.167 30.144,317.167 30.500 C 317.167 30.856,317.092 31.193,317.000 31.250 C 316.908 31.307,316.833 31.832,316.833 32.417 C 316.833 33.002,316.758 33.527,316.667 33.583 C 316.565 33.646,316.500 34.915,316.500 36.833 C 316.500 38.752,316.565 40.021,316.667 40.083 C 316.758 40.140,316.833 40.627,316.833 41.167 C 316.833 41.706,316.908 42.193,317.000 42.250 C 317.092 42.307,317.167 42.686,317.167 43.093 C 317.167 43.500,317.242 43.833,317.333 43.833 C 317.425 43.833,317.500 44.133,317.500 44.500 C 317.500 44.867,317.575 45.167,317.667 45.167 C 317.758 45.167,317.833 45.392,317.833 45.667 C 317.833 45.942,317.908 46.167,318.000 46.167 C 318.092 46.167,318.167 46.392,318.167 46.667 C 318.167 46.942,318.242 47.167,318.333 47.167 C 318.425 47.167,318.500 47.317,318.500 47.500 C 318.500 47.683,318.575 47.833,318.667 47.833 C 318.758 47.833,318.833 47.976,318.833 48.150 C 318.833 48.324,319.069 48.905,319.358 49.441 C 319.646 49.978,319.965 50.585,320.066 50.790 C 320.167 50.996,320.306 51.165,320.375 51.165 C 320.444 51.166,320.500 51.317,320.500 51.500 C 320.500 51.683,320.562 51.833,320.639 51.833 C 320.715 51.833,320.883 52.040,321.014 52.292 C 321.144 52.544,321.381 52.895,321.542 53.073 C 321.702 53.251,321.833 53.464,321.833 53.548 C 321.833 53.631,322.058 53.910,322.333 54.167 C 322.608 54.424,322.833 54.710,322.833 54.804 C 322.833 55.018,326.260 58.500,326.471 58.500 C 326.557 58.500,326.936 58.800,327.313 59.167 C 327.691 59.533,328.096 59.833,328.213 59.833 C 328.331 59.833,328.535 59.983,328.667 60.167 C 328.799 60.350,328.984 60.500,329.078 60.500 C 329.173 60.501,329.512 60.725,329.833 61.000 C 330.154 61.275,330.510 61.499,330.625 61.500 C 330.740 61.500,330.833 61.575,330.833 61.667 C 330.833 61.758,330.949 61.833,331.090 61.833 C 331.232 61.833,331.508 61.983,331.705 62.167 C 331.902 62.350,332.161 62.500,332.281 62.500 C 332.402 62.500,332.500 62.575,332.500 62.667 C 332.500 62.758,332.650 62.833,332.833 62.833 C 333.017 62.833,333.167 62.908,333.167 63.000 C 333.167 63.092,333.317 63.167,333.500 63.167 C 333.683 63.167,333.833 63.242,333.833 63.333 C 333.833 63.425,333.983 63.500,334.167 63.500 C 334.350 63.500,334.500 63.575,334.500 63.667 C 334.500 63.758,334.650 63.833,334.833 63.833 C 335.017 63.833,335.167 63.908,335.167 64.000 C 335.167 64.092,335.317 64.167,335.500 64.167 C 335.683 64.167,335.833 64.242,335.833 64.333 C 335.833 64.425,335.983 64.500,336.167 64.500 C 336.350 64.500,336.500 64.575,336.500 64.667 C 336.500 64.758,336.650 64.833,336.833 64.833 C 337.017 64.833,337.167 64.908,337.167 65.000 C 337.167 65.092,337.392 65.167,337.667 65.167 C 337.942 65.167,338.167 65.242,338.167 65.333 C 338.167 65.425,338.317 65.500,338.500 65.500 C 338.683 65.500,338.833 65.575,338.833 65.667 C 338.833 65.758,339.016 65.833,339.240 65.833 C 339.464 65.833,339.693 65.908,339.750 66.000 C 339.807 66.092,339.999 66.167,340.177 66.167 C 340.354 66.167,340.500 66.242,340.500 66.333 C 340.500 66.425,340.725 66.500,341.000 66.500 C 341.275 66.500,341.500 66.575,341.500 66.667 C 341.500 66.758,341.646 66.833,341.823 66.833 C 342.001 66.833,342.193 66.908,342.250 67.000 C 342.307 67.092,342.536 67.167,342.760 67.167 C 342.984 67.167,343.167 67.242,343.167 67.333 C 343.167 67.425,343.392 67.500,343.667 67.500 C 343.942 67.500,344.167 67.575,344.167 67.667 C 344.167 67.758,344.392 67.833,344.667 67.833 C 344.942 67.833,345.167 67.908,345.167 68.000 C 345.167 68.092,345.392 68.167,345.667 68.167 C 345.942 68.167,346.167 68.242,346.167 68.333 C 346.167 68.425,346.392 68.500,346.667 68.500 C 346.942 68.500,347.167 68.575,347.167 68.667 C 347.167 68.758,347.392 68.833,347.667 68.833 C 347.942 68.833,348.167 68.908,348.167 69.000 C 348.167 69.092,348.392 69.167,348.667 69.167 C 348.942 69.167,349.167 69.242,349.167 69.333 C 349.167 69.425,349.392 69.500,349.667 69.500 C 349.942 69.500,350.167 69.575,350.167 69.667 C 350.167 69.758,350.392 69.833,350.667 69.833 C 350.942 69.833,351.167 69.908,351.167 70.000 C 351.167 70.092,351.392 70.167,351.667 70.167 C 351.942 70.167,352.167 70.242,352.167 70.333 C 352.167 70.425,352.312 70.500,352.490 70.500 C 352.668 70.500,352.860 70.575,352.917 70.667 C 352.973 70.758,353.198 70.833,353.417 70.833 C 353.635 70.833,353.860 70.908,353.917 71.000 C 353.973 71.092,354.203 71.167,354.427 71.167 C 354.650 71.167,354.833 71.242,354.833 71.333 C 354.833 71.425,355.058 71.500,355.333 71.500 C 355.608 71.500,355.833 71.575,355.833 71.667 C 355.833 71.758,355.979 71.833,356.157 71.833 C 356.335 71.833,356.527 71.908,356.583 72.000 C 356.640 72.092,356.869 72.167,357.093 72.167 C 357.317 72.167,357.500 72.242,357.500 72.333 C 357.500 72.425,357.650 72.500,357.833 72.500 C 358.017 72.500,358.167 72.575,358.167 72.667 C 358.167 72.758,358.312 72.833,358.490 72.833 C 358.668 72.833,358.860 72.908,358.917 73.000 C 358.973 73.092,359.203 73.167,359.427 73.167 C 359.650 73.167,359.833 73.242,359.833 73.333 C 359.833 73.425,359.983 73.500,360.167 73.500 C 360.350 73.500,360.500 73.575,360.500 73.667 C 360.500 73.758,360.650 73.833,360.833 73.833 C 361.017 73.833,361.167 73.908,361.167 74.000 C 361.167 74.092,361.265 74.167,361.385 74.167 C 361.505 74.167,361.765 74.317,361.962 74.500 C 362.158 74.683,362.435 74.833,362.576 74.833 C 362.718 74.833,362.833 74.896,362.833 74.972 C 362.833 75.048,363.038 75.217,363.289 75.347 C 363.539 75.477,363.963 75.790,364.230 76.042 C 364.497 76.294,364.782 76.500,364.864 76.500 C 365.056 76.500,366.167 77.611,366.167 77.803 C 366.167 77.884,366.392 78.186,366.667 78.474 C 366.942 78.762,367.167 79.110,367.167 79.248 C 367.167 79.387,367.242 79.500,367.333 79.500 C 367.425 79.500,367.500 79.650,367.500 79.833 C 367.500 80.017,367.575 80.167,367.667 80.167 C 367.758 80.167,367.833 80.312,367.833 80.490 C 367.833 80.668,367.908 80.860,368.000 80.917 C 368.092 80.973,368.167 81.278,368.167 81.593 C 368.167 81.909,368.242 82.167,368.333 82.167 C 368.430 82.167,368.500 82.719,368.500 83.490 C 368.500 84.218,368.425 84.860,368.333 84.917 C 368.242 84.973,368.167 85.273,368.167 85.583 C 368.167 85.893,368.092 86.193,368.000 86.250 C 367.908 86.307,367.833 86.536,367.833 86.760 C 367.833 86.984,367.758 87.167,367.667 87.167 C 367.575 87.167,367.500 87.317,367.500 87.500 C 367.500 87.683,367.425 87.833,367.333 87.833 C 367.242 87.833,367.167 87.967,367.167 88.130 C 367.167 88.293,367.017 88.535,366.833 88.667 C 366.650 88.799,366.500 89.004,366.500 89.124 C 366.500 89.406,364.739 91.167,364.457 91.167 C 364.338 91.167,364.132 91.317,364.000 91.500 C 363.868 91.683,363.633 91.833,363.477 91.833 C 363.322 91.833,363.169 91.890,363.139 91.958 C 363.059 92.138,361.679 92.833,361.401 92.833 C 361.272 92.833,361.167 92.908,361.167 93.000 C 361.167 93.092,360.942 93.167,360.667 93.167 C 360.392 93.167,360.167 93.242,360.167 93.333 C 360.167 93.425,359.867 93.500,359.500 93.500 C 359.133 93.500,358.833 93.575,358.833 93.667 C 358.833 93.758,358.458 93.833,358.000 93.833 C 357.542 93.833,357.167 93.908,357.167 94.000 C 357.167 94.106,355.892 94.167,353.677 94.167 C 351.530 94.167,350.147 94.103,350.083 94.000 C 350.027 93.908,349.539 93.833,349.000 93.833 C 348.461 93.833,347.973 93.758,347.917 93.667 C 347.860 93.575,347.518 93.500,347.157 93.500 C 346.796 93.500,346.500 93.425,346.500 93.333 C 346.500 93.242,346.200 93.167,345.833 93.167 C 345.467 93.167,345.167 93.092,345.167 93.000 C 345.167 92.908,344.942 92.833,344.667 92.833 C 344.392 92.833,344.167 92.758,344.167 92.667 C 344.167 92.575,343.942 92.500,343.667 92.500 C 343.392 92.500,343.167 92.425,343.167 92.333 C 343.167 92.242,343.017 92.167,342.833 92.167 C 342.650 92.167,342.500 92.092,342.500 92.000 C 342.500 91.908,342.317 91.833,342.093 91.833 C 341.869 91.833,341.640 91.758,341.583 91.667 C 341.527 91.575,341.335 91.500,341.157 91.500 C 340.979 91.500,340.833 91.425,340.833 91.333 C 340.833 91.242,340.683 91.167,340.500 91.167 C 340.317 91.167,340.167 91.092,340.167 91.000 C 340.167 90.908,340.017 90.833,339.833 90.833 C 339.650 90.833,339.500 90.758,339.500 90.667 C 339.500 90.575,339.402 90.500,339.281 90.500 C 339.161 90.500,338.902 90.350,338.705 90.167 C 338.508 89.983,338.232 89.833,338.090 89.833 C 337.949 89.833,337.833 89.758,337.833 89.667 C 337.833 89.575,337.740 89.500,337.625 89.500 C 337.510 89.499,337.154 89.275,336.833 89.000 C 336.512 88.725,336.173 88.501,336.078 88.500 C 335.984 88.500,335.799 88.350,335.667 88.167 C 335.535 87.983,335.344 87.833,335.243 87.833 C 335.142 87.833,334.657 87.458,334.167 87.000 C 333.676 86.542,333.212 86.167,333.135 86.167 C 332.955 86.167,329.833 83.048,329.833 82.868 C 329.833 82.563,328.681 81.500,328.351 81.500 C 327.977 81.500,325.367 84.004,323.667 85.993 C 323.162 86.583,321.287 88.533,319.500 90.326 C 317.712 92.119,315.837 94.072,315.333 94.664 C 314.829 95.257,314.135 96.019,313.792 96.358 C 313.015 97.124,313.016 97.178,313.833 98.020 C 314.200 98.398,314.500 98.774,314.500 98.856 C 314.500 99.059,317.112 101.654,317.831 102.166 C 318.151 102.393,318.777 102.936,319.223 103.373 C 319.669 103.809,320.109 104.167,320.200 104.167 C 320.291 104.167,320.576 104.392,320.833 104.667 C 321.090 104.942,321.404 105.167,321.530 105.167 C 321.656 105.167,321.868 105.317,322.000 105.500 C 322.132 105.683,322.357 105.833,322.500 105.833 C 322.643 105.833,322.868 105.983,323.000 106.167 C 323.132 106.350,323.357 106.500,323.500 106.500 C 323.643 106.500,323.868 106.650,324.000 106.833 C 324.132 107.017,324.374 107.167,324.537 107.167 C 324.700 107.167,324.833 107.242,324.833 107.333 C 324.833 107.425,324.949 107.500,325.090 107.500 C 325.232 107.500,325.508 107.650,325.705 107.833 C 325.902 108.017,326.161 108.167,326.281 108.167 C 326.402 108.167,326.500 108.242,326.500 108.333 C 326.500 108.425,326.650 108.500,326.833 108.500 C 327.017 108.500,327.167 108.575,327.167 108.667 C 327.167 108.758,327.317 108.833,327.500 108.833 C 327.683 108.833,327.833 108.908,327.833 109.000 C 327.833 109.092,327.983 109.167,328.167 109.167 C 328.350 109.167,328.500 109.242,328.500 109.333 C 328.500 109.425,328.650 109.500,328.833 109.500 C 329.017 109.500,329.167 109.575,329.167 109.667 C 329.167 109.758,329.312 109.833,329.490 109.833 C 329.668 109.833,329.860 109.908,329.917 110.000 C 329.973 110.092,330.203 110.167,330.427 110.167 C 330.650 110.167,330.833 110.242,330.833 110.333 C 330.833 110.425,330.983 110.500,331.167 110.500 C 331.350 110.500,331.500 110.575,331.500 110.667 C 331.500 110.758,331.725 110.833,332.000 110.833 C 332.275 110.833,332.500 110.908,332.500 111.000 C 332.500 111.092,332.646 111.167,332.823 111.167 C 333.001 111.167,333.193 111.242,333.250 111.333 C 333.307 111.425,333.536 111.500,333.760 111.500 C 333.984 111.500,334.167 111.575,334.167 111.667 C 334.167 111.758,334.387 111.833,334.657 111.833 C 334.926 111.833,335.193 111.908,335.250 112.000 C 335.307 112.092,335.532 112.167,335.750 112.167 C 335.968 112.167,336.193 112.242,336.250 112.333 C 336.307 112.425,336.611 112.500,336.927 112.500 C 337.242 112.500,337.500 112.575,337.500 112.667 C 337.500 112.758,337.800 112.833,338.167 112.833 C 338.533 112.833,338.833 112.908,338.833 113.000 C 338.833 113.092,339.133 113.167,339.500 113.167 C 339.867 113.167,340.167 113.242,340.167 113.333 C 340.167 113.425,340.542 113.500,341.000 113.500 C 341.458 113.500,341.833 113.575,341.833 113.667 C 341.833 113.759,342.278 113.833,342.833 113.833 C 343.389 113.833,343.833 113.907,343.833 114.000 C 343.833 114.095,344.333 114.167,345.000 114.167 C 345.667 114.167,346.167 114.238,346.167 114.333 C 346.167 114.433,346.833 114.500,347.833 114.500 C 348.833 114.500,349.500 114.567,349.500 114.667 C 349.500 114.775,351.500 114.833,355.167 114.833 C 358.833 114.833,360.833 114.775,360.833 114.667 C 360.833 114.567,361.469 114.500,362.407 114.500 C 363.276 114.500,364.026 114.425,364.083 114.333 C 364.140 114.242,364.632 114.167,365.177 114.167 C 365.726 114.167,366.167 114.092,366.167 114.000 C 366.167 113.908,366.537 113.833,366.990 113.833 C 367.443 113.833,367.860 113.758,367.917 113.667 C 367.973 113.575,368.311 113.500,368.667 113.500 C 369.023 113.500,369.360 113.425,369.417 113.333 C 369.473 113.242,369.773 113.167,370.083 113.167 C 370.393 113.167,370.693 113.092,370.750 113.000 C 370.807 112.908,371.074 112.833,371.343 112.833 C 371.613 112.833,371.833 112.758,371.833 112.667 C 371.833 112.575,372.058 112.500,372.333 112.500 C 372.608 112.500,372.833 112.425,372.833 112.333 C 372.833 112.242,373.058 112.167,373.333 112.167 C 373.608 112.167,373.833 112.092,373.833 112.000 C 373.833 111.908,374.058 111.833,374.333 111.833 C 374.608 111.833,374.833 111.758,374.833 111.667 C 374.833 111.575,374.979 111.500,375.157 111.500 C 375.335 111.500,375.527 111.425,375.583 111.333 C 375.640 111.242,375.869 111.167,376.093 111.167 C 376.317 111.167,376.500 111.092,376.500 111.000 C 376.500 110.908,376.650 110.833,376.833 110.833 C 377.017 110.833,377.167 110.758,377.167 110.667 C 377.167 110.575,377.269 110.500,377.393 110.500 C 377.667 110.500,379.727 109.468,379.806 109.292 C 379.836 109.223,380.005 109.167,380.181 109.167 C 380.356 109.167,380.500 109.092,380.500 109.000 C 380.500 108.908,380.616 108.833,380.757 108.833 C 380.898 108.833,381.175 108.683,381.372 108.500 C 381.569 108.317,381.828 108.167,381.948 108.167 C 382.068 108.167,382.167 108.092,382.167 108.000 C 382.167 107.908,382.260 107.833,382.375 107.833 C 382.490 107.833,382.846 107.608,383.167 107.333 C 383.488 107.059,383.814 106.834,383.891 106.834 C 383.969 106.834,384.243 106.608,384.500 106.333 C 384.757 106.058,385.050 105.833,385.152 105.833 C 385.393 105.833,389.833 101.393,389.833 101.152 C 389.833 101.050,390.058 100.757,390.333 100.500 C 390.608 100.243,390.833 99.930,390.833 99.803 C 390.833 99.677,390.983 99.465,391.167 99.333 C 391.350 99.201,391.500 98.976,391.500 98.833 C 391.500 98.690,391.650 98.465,391.833 98.333 C 392.017 98.201,392.167 97.966,392.167 97.810 C 392.167 97.655,392.223 97.503,392.292 97.472 C 392.448 97.403,392.989 96.515,393.113 96.125 C 393.164 95.965,393.272 95.833,393.353 95.833 C 393.434 95.833,393.500 95.720,393.500 95.581 C 393.500 95.442,393.575 95.180,393.667 94.998 C 393.758 94.816,393.908 94.518,394.000 94.336 C 394.092 94.154,394.167 93.891,394.167 93.752 C 394.167 93.614,394.242 93.500,394.333 93.500 C 394.425 93.500,394.500 93.317,394.500 93.093 C 394.500 92.869,394.575 92.640,394.667 92.583 C 394.758 92.527,394.833 92.335,394.833 92.157 C 394.833 91.979,394.908 91.833,395.000 91.833 C 395.092 91.833,395.167 91.608,395.167 91.333 C 395.167 91.058,395.242 90.833,395.333 90.833 C 395.425 90.833,395.500 90.613,395.500 90.343 C 395.500 90.074,395.575 89.807,395.667 89.750 C 395.758 89.693,395.833 89.389,395.833 89.073 C 395.833 88.758,395.908 88.500,396.000 88.500 C 396.092 88.500,396.167 88.204,396.167 87.843 C 396.167 87.482,396.242 87.140,396.333 87.083 C 396.425 87.027,396.500 86.577,396.500 86.083 C 396.500 85.590,396.575 85.140,396.667 85.083 C 396.771 85.019,396.833 83.307,396.833 80.500 C 396.833 77.693,396.771 75.981,396.667 75.917 C 396.575 75.860,396.500 75.443,396.500 74.990 C 396.500 74.537,396.425 74.167,396.333 74.167 C 396.242 74.167,396.167 73.871,396.167 73.510 C 396.167 73.149,396.092 72.807,396.000 72.750 C 395.908 72.693,395.833 72.389,395.833 72.073 C 395.833 71.758,395.758 71.500,395.667 71.500 C 395.575 71.500,395.500 71.275,395.500 71.000 C 395.500 70.725,395.425 70.500,395.333 70.500 C 395.242 70.500,395.167 70.354,395.167 70.177 C 395.167 69.999,395.092 69.807,395.000 69.750 C 394.908 69.693,394.833 69.464,394.833 69.240 C 394.833 69.016,394.758 68.833,394.667 68.833 C 394.575 68.833,394.500 68.683,394.500 68.500 C 394.500 68.317,394.425 68.167,394.333 68.167 C 394.242 68.167,394.167 68.017,394.167 67.833 C 394.167 67.650,394.092 67.500,394.000 67.500 C 393.908 67.500,393.833 67.350,393.833 67.167 C 393.833 66.983,393.758 66.833,393.667 66.833 C 393.575 66.833,393.500 66.683,393.500 66.500 C 393.500 66.317,393.425 66.167,393.333 66.167 C 393.242 66.167,393.167 66.033,393.167 65.870 C 393.167 65.707,393.017 65.465,392.833 65.333 C 392.650 65.201,392.500 64.960,392.500 64.797 C 392.500 64.633,392.438 64.500,392.361 64.500 C 392.285 64.500,392.117 64.294,391.988 64.042 C 391.858 63.790,391.621 63.462,391.459 63.314 C 391.298 63.166,391.167 62.973,391.167 62.885 C 391.167 62.797,390.792 62.324,390.333 61.833 C 389.875 61.343,389.500 60.878,389.500 60.801 C 389.500 60.605,387.539 58.667,386.833 58.166 C 386.512 57.938,385.960 57.470,385.605 57.126 C 385.250 56.782,384.873 56.500,384.767 56.500 C 384.660 56.500,384.465 56.350,384.333 56.167 C 384.201 55.983,384.011 55.833,383.911 55.833 C 383.811 55.833,383.584 55.702,383.406 55.542 C 383.229 55.381,382.877 55.144,382.625 55.014 C 382.373 54.883,382.167 54.715,382.167 54.639 C 382.167 54.562,382.051 54.500,381.910 54.500 C 381.768 54.500,381.492 54.350,381.295 54.167 C 381.098 53.983,380.839 53.833,380.719 53.833 C 380.598 53.833,380.500 53.758,380.500 53.667 C 380.500 53.575,380.350 53.500,380.167 53.500 C 379.983 53.500,379.833 53.425,379.833 53.333 C 379.833 53.242,379.683 53.167,379.500 53.167 C 379.317 53.167,379.167 53.092,379.167 53.000 C 379.167 52.908,379.017 52.833,378.833 52.833 C 378.650 52.833,378.500 52.758,378.500 52.667 C 378.500 52.575,378.350 52.500,378.167 52.500 C 377.983 52.500,377.833 52.425,377.833 52.333 C 377.833 52.242,377.683 52.167,377.500 52.167 C 377.317 52.167,377.167 52.092,377.167 52.000 C 377.167 51.908,377.017 51.833,376.833 51.833 C 376.650 51.833,376.500 51.758,376.500 51.667 C 376.500 51.575,376.350 51.500,376.167 51.500 C 375.983 51.500,375.833 51.425,375.833 51.333 C 375.833 51.242,375.683 51.167,375.500 51.167 C 375.317 51.167,375.167 51.092,375.167 51.000 C 375.167 50.908,374.984 50.833,374.760 50.833 C 374.536 50.833,374.307 50.758,374.250 50.667 C 374.193 50.575,374.001 50.500,373.823 50.500 C 373.646 50.500,373.500 50.425,373.500 50.333 C 373.500 50.242,373.354 50.167,373.177 50.167 C 372.999 50.167,372.807 50.092,372.750 50.000 C 372.693 49.908,372.464 49.833,372.240 49.833 C 372.016 49.833,371.833 49.758,371.833 49.667 C 371.833 49.575,371.650 49.500,371.427 49.500 C 371.203 49.500,370.973 49.425,370.917 49.333 C 370.860 49.242,370.668 49.167,370.490 49.167 C 370.312 49.167,370.167 49.092,370.167 49.000 C 370.167 48.908,369.942 48.833,369.667 48.833 C 369.392 48.833,369.167 48.758,369.167 48.667 C 369.167 48.575,368.942 48.500,368.667 48.500 C 368.392 48.500,368.167 48.425,368.167 48.333 C 368.167 48.242,368.021 48.167,367.843 48.167 C 367.665 48.167,367.473 48.092,367.417 48.000 C 367.360 47.908,367.135 47.833,366.917 47.833 C 366.698 47.833,366.473 47.758,366.417 47.667 C 366.360 47.575,366.135 47.500,365.917 47.500 C 365.698 47.500,365.473 47.425,365.417 47.333 C 365.360 47.242,365.131 47.167,364.907 47.167 C 364.683 47.167,364.500 47.092,364.500 47.000 C 364.500 46.908,364.279 46.833,364.010 46.833 C 363.740 46.833,363.473 46.758,363.417 46.667 C 363.360 46.575,363.135 46.500,362.917 46.500 C 362.698 46.500,362.473 46.425,362.417 46.333 C 362.360 46.242,362.131 46.167,361.907 46.167 C 361.683 46.167,361.500 46.092,361.500 46.000 C 361.500 45.908,361.275 45.833,361.000 45.833 C 360.725 45.833,360.500 45.758,360.500 45.667 C 360.500 45.575,360.275 45.500,360.000 45.500 C 359.725 45.500,359.500 45.425,359.500 45.333 C 359.500 45.242,359.275 45.167,359.000 45.167 C 358.725 45.167,358.500 45.092,358.500 45.000 C 358.500 44.908,358.275 44.833,358.000 44.833 C 357.725 44.833,357.500 44.758,357.500 44.667 C 357.500 44.575,357.275 44.500,357.000 44.500 C 356.725 44.500,356.500 44.425,356.500 44.333 C 356.500 44.242,356.275 44.167,356.000 44.167 C 355.725 44.167,355.500 44.092,355.500 44.000 C 355.500 43.908,355.350 43.833,355.167 43.833 C 354.983 43.833,354.833 43.758,354.833 43.667 C 354.833 43.575,354.608 43.500,354.333 43.500 C 354.058 43.500,353.833 43.425,353.833 43.333 C 353.833 43.242,353.688 43.167,353.510 43.167 C 353.332 43.167,353.140 43.092,353.083 43.000 C 353.027 42.908,352.797 42.833,352.573 42.833 C 352.350 42.833,352.167 42.758,352.167 42.667 C 352.167 42.575,352.017 42.500,351.833 42.500 C 351.650 42.500,351.500 42.425,351.500 42.333 C 351.500 42.242,351.350 42.167,351.167 42.167 C 350.983 42.167,350.833 42.092,350.833 42.000 C 350.833 41.908,350.683 41.833,350.500 41.833 C 350.317 41.833,350.167 41.758,350.167 41.667 C 350.167 41.575,350.017 41.500,349.833 41.500 C 349.650 41.500,349.500 41.425,349.500 41.333 C 349.500 41.242,349.350 41.167,349.167 41.167 C 348.983 41.167,348.833 41.104,348.833 41.028 C 348.833 40.952,348.627 40.783,348.375 40.653 C 348.123 40.523,347.771 40.285,347.594 40.125 C 347.416 39.965,347.208 39.833,347.133 39.833 C 346.884 39.833,344.500 37.345,344.500 37.086 C 344.500 36.947,344.425 36.833,344.333 36.833 C 344.242 36.833,344.167 36.683,344.167 36.500 C 344.167 36.317,344.092 36.167,344.000 36.167 C 343.908 36.167,343.833 36.017,343.833 35.833 C 343.833 35.650,343.758 35.500,343.667 35.500 C 343.575 35.500,343.500 35.275,343.500 35.000 C 343.500 34.725,343.425 34.500,343.333 34.500 C 343.233 34.500,343.167 33.833,343.167 32.833 C 343.167 31.833,343.233 31.167,343.333 31.167 C 343.425 31.167,343.500 30.946,343.500 30.677 C 343.500 30.407,343.575 30.140,343.667 30.083 C 343.758 30.027,343.833 29.797,343.833 29.573 C 343.833 29.350,343.908 29.167,344.000 29.167 C 344.092 29.167,344.167 29.033,344.167 28.870 C 344.167 28.707,344.317 28.465,344.500 28.333 C 344.683 28.201,344.833 27.996,344.833 27.876 C 344.833 27.596,346.452 25.987,347.044 25.680 C 347.295 25.550,347.500 25.381,347.500 25.305 C 347.500 25.229,347.650 25.167,347.833 25.167 C 348.017 25.167,348.167 25.092,348.167 25.000 C 348.167 24.908,348.317 24.833,348.500 24.833 C 348.683 24.833,348.833 24.758,348.833 24.667 C 348.833 24.575,348.983 24.500,349.167 24.500 C 349.350 24.500,349.500 24.425,349.500 24.333 C 349.500 24.242,349.725 24.167,350.000 24.167 C 350.275 24.167,350.500 24.092,350.500 24.000 C 350.500 23.908,350.800 23.833,351.167 23.833 C 351.533 23.833,351.833 23.758,351.833 23.667 C 351.833 23.568,352.433 23.500,353.300 23.500 C 354.235 23.500,354.841 23.426,354.971 23.296 C 355.132 23.135,355.244 23.135,355.502 23.296 C 355.708 23.425,356.505 23.500,357.664 23.500 C 358.777 23.500,359.500 23.566,359.500 23.667 C 359.500 23.758,359.875 23.833,360.333 23.833 C 360.792 23.833,361.167 23.908,361.167 24.000 C 361.167 24.092,361.467 24.167,361.833 24.167 C 362.200 24.167,362.500 24.242,362.500 24.333 C 362.500 24.425,362.758 24.500,363.073 24.500 C 363.389 24.500,363.693 24.575,363.750 24.667 C 363.807 24.758,364.032 24.833,364.250 24.833 C 364.468 24.833,364.693 24.908,364.750 25.000 C 364.807 25.092,364.999 25.167,365.177 25.167 C 365.354 25.167,365.500 25.242,365.500 25.333 C 365.500 25.425,365.683 25.500,365.907 25.500 C 366.131 25.500,366.360 25.575,366.417 25.667 C 366.473 25.758,366.665 25.833,366.843 25.833 C 367.021 25.833,367.167 25.908,367.167 26.000 C 367.167 26.092,367.317 26.167,367.500 26.167 C 367.683 26.167,367.833 26.242,367.833 26.333 C 367.833 26.425,367.983 26.500,368.167 26.500 C 368.350 26.500,368.500 26.575,368.500 26.667 C 368.500 26.758,368.616 26.833,368.757 26.833 C 368.898 26.833,369.175 26.983,369.372 27.167 C 369.569 27.350,369.828 27.500,369.948 27.500 C 370.068 27.500,370.167 27.575,370.167 27.667 C 370.167 27.758,370.300 27.833,370.463 27.833 C 370.626 27.833,370.868 27.983,371.000 28.167 C 371.132 28.350,371.325 28.500,371.429 28.500 C 371.532 28.500,371.853 28.725,372.140 29.000 C 372.428 29.275,372.736 29.500,372.824 29.500 C 372.913 29.500,373.964 30.475,375.160 31.667 C 377.711 34.207,377.757 34.223,378.833 32.884 C 379.246 32.371,381.121 30.404,383.000 28.514 C 384.879 26.623,386.829 24.594,387.333 24.004 C 387.837 23.415,389.219 21.962,390.403 20.777 C 393.059 18.117,393.041 18.203,391.280 16.442 C 390.579 15.740,389.942 15.167,389.866 15.167 C 389.789 15.167,389.324 14.792,388.833 14.333 C 388.343 13.875,387.879 13.500,387.802 13.500 C 387.726 13.500,387.428 13.275,387.140 13.000 C 386.853 12.725,386.532 12.500,386.429 12.500 C 386.325 12.500,386.132 12.350,386.000 12.167 C 385.868 11.983,385.661 11.833,385.540 11.833 C 385.418 11.833,385.158 11.683,384.962 11.500 C 384.765 11.317,384.505 11.167,384.385 11.167 C 384.265 11.167,384.167 11.092,384.167 11.000 C 384.167 10.908,384.033 10.833,383.870 10.833 C 383.707 10.833,383.465 10.683,383.333 10.500 C 383.201 10.317,382.960 10.167,382.797 10.167 C 382.633 10.167,382.500 10.092,382.500 10.000 C 382.500 9.908,382.350 9.833,382.167 9.833 C 381.983 9.833,381.833 9.758,381.833 9.667 C 381.833 9.575,381.683 9.500,381.500 9.500 C 381.317 9.500,381.167 9.425,381.167 9.333 C 381.167 9.242,381.017 9.167,380.833 9.167 C 380.650 9.167,380.500 9.092,380.500 9.000 C 380.500 8.908,380.350 8.833,380.167 8.833 C 379.983 8.833,379.833 8.758,379.833 8.667 C 379.833 8.575,379.683 8.500,379.500 8.500 C 379.317 8.500,379.167 8.425,379.167 8.333 C 379.167 8.242,379.017 8.167,378.833 8.167 C 378.650 8.167,378.500 8.092,378.500 8.000 C 378.500 7.908,378.350 7.833,378.167 7.833 C 377.983 7.833,377.833 7.758,377.833 7.667 C 377.833 7.575,377.650 7.500,377.427 7.500 C 377.203 7.500,376.973 7.425,376.917 7.333 C 376.860 7.242,376.668 7.167,376.490 7.167 C 376.312 7.167,376.167 7.092,376.167 7.000 C 376.167 6.908,375.942 6.833,375.667 6.833 C 375.392 6.833,375.167 6.758,375.167 6.667 C 375.167 6.575,375.021 6.500,374.843 6.500 C 374.665 6.500,374.473 6.425,374.417 6.333 C 374.360 6.242,374.131 6.167,373.907 6.167 C 373.683 6.167,373.500 6.092,373.500 6.000 C 373.500 5.908,373.279 5.833,373.010 5.833 C 372.740 5.833,372.473 5.758,372.417 5.667 C 372.360 5.575,372.098 5.500,371.833 5.500 C 371.569 5.500,371.307 5.425,371.250 5.333 C 371.193 5.242,370.931 5.167,370.667 5.167 C 370.402 5.167,370.140 5.092,370.083 5.000 C 370.027 4.908,369.722 4.833,369.407 4.833 C 369.091 4.833,368.833 4.758,368.833 4.667 C 368.833 4.575,368.458 4.500,368.000 4.500 C 367.542 4.500,367.167 4.425,367.167 4.333 C 367.167 4.242,366.792 4.167,366.333 4.167 C 365.875 4.167,365.500 4.092,365.500 4.000 C 365.500 3.907,365.056 3.833,364.500 3.833 C 363.944 3.833,363.500 3.759,363.500 3.667 C 363.500 3.568,362.889 3.500,362.000 3.500 C 361.111 3.500,360.500 3.432,360.500 3.333 C 360.500 3.226,358.698 3.167,355.427 3.167 C 352.224 3.167,350.315 3.228,350.250 3.333 M3.167 58.833 L 3.167 113.167 14.667 113.167 L 26.167 113.167 26.167 87.667 C 26.167 73.642,26.202 62.167,26.244 62.167 C 26.287 62.167,32.030 67.867,39.008 74.833 C 46.954 82.768,51.813 87.500,52.012 87.500 C 52.212 87.500,57.057 82.774,64.999 74.833 C 71.966 67.867,77.705 62.167,77.750 62.167 C 77.796 62.167,77.833 73.642,77.833 87.668 L 77.833 113.169 89.458 113.126 L 101.083 113.083 101.083 58.833 L 101.083 4.583 100.292 4.533 C 99.815 4.502,99.500 4.552,99.500 4.658 C 99.500 4.754,99.200 4.833,98.833 4.833 C 98.467 4.833,98.167 4.908,98.167 5.000 C 98.167 5.092,98.017 5.167,97.833 5.167 C 97.650 5.167,97.500 5.229,97.500 5.305 C 97.500 5.381,97.296 5.550,97.046 5.680 C 96.797 5.810,92.534 9.967,87.574 14.917 C 82.613 19.867,76.541 25.867,74.078 28.250 C 71.616 30.633,65.642 36.539,60.801 41.373 L 52.000 50.163 41.699 39.873 C 36.034 34.214,29.234 27.483,26.589 24.917 C 23.944 22.350,18.453 16.931,14.387 12.875 C 10.320 8.819,6.883 5.500,6.747 5.500 C 6.611 5.500,6.500 5.425,6.500 5.333 C 6.500 5.242,6.350 5.167,6.167 5.167 C 5.983 5.167,5.833 5.092,5.833 5.000 C 5.833 4.908,5.533 4.833,5.167 4.833 C 4.800 4.833,4.500 4.758,4.500 4.667 C 4.500 4.575,4.200 4.500,3.833 4.500 L 3.167 4.500 3.167 58.833 M218.833 59.000 L 218.833 113.167 232.000 113.167 L 245.167 113.167 245.167 93.167 L 245.167 73.167 251.000 73.167 C 254.778 73.167,256.833 73.225,256.833 73.333 C 256.833 73.425,257.208 73.500,257.667 73.500 C 258.125 73.500,258.500 73.575,258.500 73.667 C 258.500 73.758,258.725 73.833,259.000 73.833 C 259.275 73.833,259.500 73.908,259.500 74.000 C 259.500 74.092,259.683 74.167,259.907 74.167 C 260.131 74.167,260.360 74.242,260.417 74.333 C 260.473 74.425,260.665 74.500,260.843 74.500 C 261.021 74.500,261.167 74.575,261.167 74.667 C 261.167 74.758,261.317 74.833,261.500 74.833 C 261.683 74.833,261.833 74.896,261.833 74.972 C 261.833 75.048,262.038 75.217,262.289 75.347 C 262.539 75.477,262.963 75.790,263.230 76.042 C 263.497 76.294,263.787 76.500,263.875 76.500 C 264.075 76.500,265.500 77.999,265.500 78.210 C 265.500 78.296,265.725 78.576,266.000 78.833 C 266.275 79.090,266.500 79.404,266.500 79.530 C 266.500 79.656,266.650 79.868,266.833 80.000 C 267.017 80.132,267.167 80.374,267.167 80.537 C 267.167 80.700,267.242 80.833,267.333 80.833 C 267.425 80.833,267.500 80.983,267.500 81.167 C 267.500 81.350,267.563 81.500,267.640 81.500 C 267.718 81.500,267.951 81.856,268.159 82.292 C 268.366 82.727,268.603 83.214,268.685 83.373 C 268.767 83.532,268.833 83.776,268.833 83.914 C 268.833 84.053,268.908 84.167,269.000 84.167 C 269.092 84.167,269.167 84.317,269.167 84.500 C 269.167 84.683,269.242 84.833,269.333 84.833 C 269.425 84.833,269.500 84.979,269.500 85.157 C 269.500 85.335,269.575 85.527,269.667 85.583 C 269.758 85.640,269.833 85.869,269.833 86.093 C 269.833 86.317,269.908 86.500,270.000 86.500 C 270.092 86.500,270.167 86.683,270.167 86.907 C 270.167 87.131,270.242 87.360,270.333 87.417 C 270.425 87.473,270.500 87.665,270.500 87.843 C 270.500 88.021,270.575 88.167,270.667 88.167 C 270.758 88.167,270.833 88.392,270.833 88.667 C 270.833 88.942,270.908 89.167,271.000 89.167 C 271.092 89.167,271.167 89.392,271.167 89.667 C 271.167 89.942,271.242 90.167,271.333 90.167 C 271.425 90.167,271.500 90.392,271.500 90.667 C 271.500 90.942,271.575 91.167,271.667 91.167 C 271.758 91.167,271.833 91.392,271.833 91.667 C 271.833 91.942,271.908 92.167,272.000 92.167 C 272.092 92.167,272.167 92.392,272.167 92.667 C 272.167 92.942,272.242 93.167,272.333 93.167 C 272.425 93.167,272.500 93.392,272.500 93.667 C 272.500 93.942,272.575 94.167,272.667 94.167 C 272.758 94.167,272.833 94.425,272.833 94.740 C 272.833 95.056,272.908 95.360,273.000 95.417 C 273.092 95.473,273.167 95.740,273.167 96.010 C 273.167 96.279,273.242 96.500,273.333 96.500 C 273.425 96.500,273.500 96.758,273.500 97.073 C 273.500 97.389,273.575 97.693,273.667 97.750 C 273.758 97.807,273.833 98.074,273.833 98.343 C 273.833 98.613,273.908 98.833,274.000 98.833 C 274.092 98.833,274.167 99.133,274.167 99.500 C 274.167 99.867,274.242 100.167,274.333 100.167 C 274.425 100.167,274.500 100.467,274.500 100.833 C 274.500 101.200,274.575 101.500,274.667 101.500 C 274.758 101.500,274.833 101.758,274.833 102.073 C 274.833 102.389,274.908 102.693,275.000 102.750 C 275.092 102.807,275.167 103.107,275.167 103.417 C 275.167 103.727,275.242 104.027,275.333 104.083 C 275.425 104.140,275.500 104.440,275.500 104.750 C 275.500 105.060,275.575 105.360,275.667 105.417 C 275.758 105.473,275.833 105.773,275.833 106.083 C 275.833 106.393,275.908 106.693,276.000 106.750 C 276.092 106.807,276.167 107.149,276.167 107.510 C 276.167 107.871,276.242 108.167,276.333 108.167 C 276.425 108.167,276.500 108.467,276.500 108.833 C 276.500 109.200,276.575 109.500,276.667 109.500 C 276.758 109.500,276.833 109.800,276.833 110.167 C 276.833 110.533,276.908 110.833,277.000 110.833 C 277.092 110.833,277.167 111.133,277.167 111.500 C 277.167 111.867,277.242 112.167,277.333 112.167 C 277.425 112.167,277.500 112.392,277.500 112.668 L 277.500 113.168 292.208 113.126 L 306.917 113.083 306.858 112.333 C 306.826 111.921,306.732 111.558,306.650 111.528 C 306.567 111.497,306.500 111.253,306.500 110.986 C 306.500 110.719,306.425 110.500,306.333 110.500 C 306.242 110.500,306.167 110.275,306.167 110.000 C 306.167 109.725,306.092 109.500,306.000 109.500 C 305.908 109.500,305.833 109.275,305.833 109.000 C 305.833 108.725,305.758 108.500,305.667 108.500 C 305.575 108.500,305.500 108.275,305.500 108.000 C 305.500 107.725,305.425 107.500,305.333 107.500 C 305.242 107.500,305.167 107.275,305.167 107.000 C 305.167 106.725,305.092 106.500,305.000 106.500 C 304.908 106.500,304.833 106.275,304.833 106.000 C 304.833 105.725,304.758 105.500,304.667 105.500 C 304.575 105.500,304.500 105.275,304.500 105.000 C 304.500 104.725,304.425 104.500,304.333 104.500 C 304.242 104.500,304.167 104.275,304.167 104.000 C 304.167 103.725,304.092 103.500,304.000 103.500 C 303.908 103.500,303.833 103.317,303.833 103.093 C 303.833 102.869,303.758 102.640,303.667 102.583 C 303.575 102.527,303.500 102.302,303.500 102.083 C 303.500 101.865,303.425 101.640,303.333 101.583 C 303.242 101.527,303.167 101.334,303.167 101.155 C 303.167 100.975,303.092 100.680,303.000 100.498 C 302.908 100.316,302.758 100.018,302.667 99.836 C 302.575 99.654,302.500 99.354,302.500 99.169 C 302.500 98.984,302.425 98.833,302.333 98.833 C 302.242 98.833,302.167 98.608,302.167 98.333 C 302.167 98.058,302.092 97.833,302.000 97.833 C 301.908 97.833,301.833 97.608,301.833 97.333 C 301.833 97.058,301.758 96.833,301.667 96.833 C 301.575 96.833,301.500 96.608,301.500 96.333 C 301.500 96.058,301.425 95.833,301.333 95.833 C 301.242 95.833,301.167 95.608,301.167 95.333 C 301.167 95.058,301.092 94.833,301.000 94.833 C 300.908 94.833,300.833 94.682,300.833 94.498 C 300.833 94.313,300.758 94.013,300.667 93.831 C 300.575 93.649,300.425 93.351,300.333 93.169 C 300.242 92.987,300.167 92.687,300.167 92.502 C 300.167 92.318,300.092 92.167,300.000 92.167 C 299.908 92.167,299.833 91.942,299.833 91.667 C 299.833 91.392,299.758 91.167,299.667 91.167 C 299.575 91.167,299.500 90.942,299.500 90.667 C 299.500 90.392,299.425 90.167,299.333 90.167 C 299.242 90.167,299.167 89.984,299.167 89.760 C 299.167 89.536,299.092 89.307,299.000 89.250 C 298.908 89.193,298.833 88.968,298.833 88.750 C 298.833 88.532,298.758 88.307,298.667 88.250 C 298.575 88.193,298.500 88.001,298.500 87.823 C 298.500 87.646,298.425 87.500,298.333 87.500 C 298.242 87.500,298.167 87.275,298.167 87.000 C 298.167 86.725,298.092 86.500,298.000 86.500 C 297.908 86.500,297.833 86.275,297.833 86.000 C 297.833 85.725,297.758 85.500,297.667 85.500 C 297.575 85.500,297.500 85.317,297.500 85.093 C 297.500 84.869,297.425 84.640,297.333 84.583 C 297.242 84.527,297.167 84.335,297.167 84.157 C 297.167 83.979,297.092 83.833,297.000 83.833 C 296.908 83.833,296.833 83.608,296.833 83.333 C 296.833 83.058,296.758 82.833,296.667 82.833 C 296.575 82.833,296.500 82.683,296.500 82.500 C 296.500 82.317,296.425 82.167,296.333 82.167 C 296.242 82.167,296.167 81.984,296.167 81.760 C 296.167 81.536,296.092 81.307,296.000 81.250 C 295.908 81.193,295.833 81.001,295.833 80.823 C 295.833 80.646,295.758 80.500,295.667 80.500 C 295.575 80.500,295.500 80.350,295.500 80.167 C 295.500 79.983,295.425 79.833,295.333 79.833 C 295.242 79.833,295.167 79.683,295.167 79.500 C 295.167 79.317,295.092 79.167,295.000 79.167 C 294.908 79.167,294.833 79.024,294.833 78.850 C 294.833 78.676,294.597 78.095,294.309 77.559 C 294.020 77.022,293.702 76.415,293.601 76.210 C 293.499 76.004,293.360 75.835,293.292 75.835 C 293.223 75.834,293.167 75.683,293.167 75.500 C 293.167 75.317,293.092 75.167,293.000 75.167 C 292.908 75.167,292.833 75.017,292.833 74.833 C 292.833 74.650,292.758 74.500,292.667 74.500 C 292.575 74.500,292.500 74.402,292.500 74.281 C 292.500 74.161,292.350 73.902,292.167 73.705 C 291.983 73.508,291.833 73.248,291.833 73.127 C 291.833 73.006,291.683 72.799,291.500 72.667 C 291.317 72.535,291.167 72.310,291.167 72.167 C 291.167 72.024,291.017 71.799,290.833 71.667 C 290.650 71.535,290.500 71.323,290.500 71.197 C 290.500 71.070,290.275 70.757,290.000 70.500 C 289.725 70.243,289.500 69.946,289.500 69.841 C 289.500 69.599,284.416 64.500,284.174 64.500 C 284.077 64.500,283.762 64.275,283.474 64.000 C 283.186 63.725,282.849 63.500,282.725 63.500 C 282.322 63.500,282.488 62.896,282.958 62.654 C 283.210 62.525,283.538 62.287,283.686 62.126 C 283.834 61.965,284.048 61.833,284.161 61.833 C 284.274 61.833,284.576 61.608,284.833 61.333 C 285.090 61.058,285.386 60.833,285.490 60.833 C 285.727 60.833,290.167 56.378,290.167 56.140 C 290.167 56.045,290.392 55.757,290.667 55.500 C 290.942 55.243,291.167 54.930,291.167 54.803 C 291.167 54.677,291.317 54.465,291.500 54.333 C 291.683 54.201,291.833 53.994,291.833 53.873 C 291.833 53.752,291.983 53.492,292.167 53.295 C 292.350 53.098,292.500 52.839,292.500 52.719 C 292.500 52.598,292.575 52.500,292.667 52.500 C 292.758 52.500,292.833 52.350,292.833 52.167 C 292.833 51.983,292.908 51.833,293.000 51.833 C 293.092 51.833,293.167 51.683,293.167 51.500 C 293.167 51.317,293.242 51.167,293.333 51.167 C 293.425 51.167,293.500 51.017,293.500 50.833 C 293.500 50.650,293.575 50.500,293.667 50.500 C 293.758 50.500,293.833 50.350,293.833 50.167 C 293.833 49.983,293.908 49.833,294.000 49.833 C 294.092 49.833,294.167 49.608,294.167 49.333 C 294.167 49.058,294.242 48.833,294.333 48.833 C 294.425 48.833,294.500 48.688,294.500 48.510 C 294.500 48.332,294.575 48.140,294.667 48.083 C 294.758 48.027,294.833 47.764,294.833 47.500 C 294.833 47.236,294.908 46.973,295.000 46.917 C 295.092 46.860,295.167 46.593,295.167 46.323 C 295.167 46.054,295.242 45.833,295.333 45.833 C 295.425 45.833,295.500 45.533,295.500 45.167 C 295.500 44.800,295.575 44.500,295.667 44.500 C 295.758 44.500,295.833 44.129,295.833 43.677 C 295.833 43.224,295.908 42.807,296.000 42.750 C 296.092 42.693,296.167 42.056,296.167 41.333 C 296.167 40.611,296.242 39.973,296.333 39.917 C 296.433 39.855,296.500 38.724,296.500 37.083 C 296.500 35.443,296.433 34.312,296.333 34.250 C 296.242 34.193,296.167 33.556,296.167 32.833 C 296.167 32.111,296.092 31.473,296.000 31.417 C 295.908 31.360,295.833 30.948,295.833 30.500 C 295.833 30.052,295.758 29.640,295.667 29.583 C 295.575 29.527,295.500 29.185,295.500 28.823 C 295.500 28.462,295.425 28.167,295.333 28.167 C 295.242 28.167,295.167 27.942,295.167 27.667 C 295.167 27.392,295.092 27.167,295.000 27.167 C 294.908 27.167,294.833 26.942,294.833 26.667 C 294.833 26.392,294.758 26.167,294.667 26.167 C 294.575 26.167,294.500 25.942,294.500 25.667 C 294.500 25.392,294.425 25.167,294.333 25.167 C 294.242 25.167,294.167 25.017,294.167 24.833 C 294.167 24.650,294.092 24.500,294.000 24.500 C 293.908 24.500,293.833 24.358,293.833 24.184 C 293.833 24.010,293.597 23.428,293.309 22.892 C 293.020 22.356,292.702 21.749,292.601 21.543 C 292.499 21.337,292.360 21.169,292.292 21.168 C 292.223 21.167,292.167 21.033,292.167 20.870 C 292.167 20.707,292.017 20.465,291.833 20.333 C 291.650 20.201,291.500 19.976,291.500 19.833 C 291.500 19.690,291.350 19.465,291.167 19.333 C 290.983 19.201,290.833 18.991,290.833 18.867 C 290.833 18.742,290.533 18.352,290.167 18.000 C 289.800 17.648,289.500 17.282,289.500 17.187 C 289.500 16.962,286.705 14.167,286.480 14.167 C 286.385 14.167,286.019 13.867,285.667 13.500 C 285.314 13.133,284.945 12.833,284.845 12.833 C 284.745 12.833,284.428 12.608,284.140 12.333 C 283.853 12.058,283.532 11.833,283.429 11.833 C 283.325 11.833,283.132 11.683,283.000 11.500 C 282.868 11.317,282.661 11.167,282.540 11.167 C 282.418 11.167,282.158 11.017,281.962 10.833 C 281.765 10.650,281.505 10.500,281.385 10.500 C 281.265 10.500,281.167 10.425,281.167 10.333 C 281.167 10.242,281.017 10.167,280.833 10.167 C 280.650 10.167,280.500 10.092,280.500 10.000 C 280.500 9.908,280.350 9.833,280.167 9.833 C 279.983 9.833,279.833 9.758,279.833 9.667 C 279.833 9.575,279.683 9.500,279.500 9.500 C 279.317 9.500,279.167 9.425,279.167 9.333 C 279.167 9.242,279.017 9.167,278.833 9.167 C 278.650 9.167,278.500 9.092,278.500 9.000 C 278.500 8.908,278.350 8.833,278.167 8.833 C 277.983 8.833,277.833 8.758,277.833 8.667 C 277.833 8.575,277.688 8.500,277.510 8.500 C 277.332 8.500,277.140 8.425,277.083 8.333 C 277.027 8.242,276.797 8.167,276.573 8.167 C 276.350 8.167,276.167 8.092,276.167 8.000 C 276.167 7.908,275.942 7.833,275.667 7.833 C 275.392 7.833,275.167 7.758,275.167 7.667 C 275.167 7.575,274.942 7.500,274.667 7.500 C 274.392 7.500,274.167 7.425,274.167 7.333 C 274.167 7.242,273.942 7.167,273.667 7.167 C 273.392 7.167,273.167 7.092,273.167 7.000 C 273.167 6.908,272.867 6.833,272.500 6.833 C 272.133 6.833,271.833 6.758,271.833 6.667 C 271.833 6.575,271.538 6.500,271.177 6.500 C 270.815 6.500,270.473 6.425,270.417 6.333 C 270.360 6.242,269.948 6.167,269.500 6.167 C 269.052 6.167,268.640 6.092,268.583 6.000 C 268.527 5.908,268.035 5.833,267.490 5.833 C 266.941 5.833,266.500 5.759,266.500 5.667 C 266.500 5.569,265.920 5.500,265.093 5.500 C 264.319 5.500,263.640 5.425,263.583 5.333 C 263.522 5.234,262.415 5.167,260.823 5.167 C 259.163 5.167,258.167 5.104,258.167 5.000 C 258.167 4.890,251.500 4.833,238.500 4.833 L 218.833 4.833 218.833 59.000 M255.500 25.000 C 255.500 25.097,256.056 25.167,256.833 25.167 C 257.611 25.167,258.167 25.236,258.167 25.333 C 258.167 25.425,258.500 25.500,258.907 25.500 C 259.314 25.500,259.693 25.575,259.750 25.667 C 259.807 25.758,260.074 25.833,260.343 25.833 C 260.613 25.833,260.833 25.908,260.833 26.000 C 260.833 26.092,261.058 26.167,261.333 26.167 C 261.608 26.167,261.833 26.242,261.833 26.333 C 261.833 26.425,261.983 26.500,262.167 26.500 C 262.350 26.500,262.500 26.575,262.500 26.667 C 262.500 26.758,262.650 26.833,262.833 26.833 C 263.017 26.833,263.167 26.908,263.167 27.000 C 263.167 27.092,263.260 27.167,263.375 27.167 C 263.490 27.167,263.846 27.392,264.167 27.667 C 264.487 27.941,264.808 28.166,264.879 28.166 C 265.098 28.167,266.833 29.980,266.833 30.210 C 266.833 30.329,266.983 30.535,267.167 30.667 C 267.350 30.799,267.500 31.034,267.500 31.190 C 267.500 31.345,267.556 31.497,267.625 31.528 C 267.805 31.608,268.500 32.988,268.500 33.266 C 268.500 33.395,268.575 33.500,268.667 33.500 C 268.758 33.500,268.833 33.725,268.833 34.000 C 268.833 34.275,268.908 34.500,269.000 34.500 C 269.092 34.500,269.167 34.833,269.167 35.240 C 269.167 35.647,269.242 36.027,269.333 36.083 C 269.433 36.145,269.500 37.252,269.500 38.843 C 269.500 40.503,269.437 41.500,269.333 41.500 C 269.242 41.500,269.167 41.833,269.167 42.240 C 269.167 42.647,269.092 43.027,269.000 43.083 C 268.908 43.140,268.833 43.407,268.833 43.677 C 268.833 43.946,268.758 44.167,268.667 44.167 C 268.575 44.167,268.500 44.317,268.500 44.500 C 268.500 44.683,268.425 44.833,268.333 44.833 C 268.242 44.833,268.167 44.983,268.167 45.167 C 268.167 45.350,268.092 45.500,268.000 45.500 C 267.908 45.500,267.833 45.650,267.833 45.833 C 267.833 46.017,267.758 46.167,267.667 46.167 C 267.575 46.167,267.500 46.279,267.500 46.416 C 267.500 46.554,267.200 46.984,266.833 47.374 C 266.467 47.763,266.167 48.144,266.167 48.219 C 266.167 48.400,265.880 48.671,265.167 49.164 C 264.846 49.386,264.462 49.702,264.314 49.867 C 264.166 50.032,263.922 50.167,263.772 50.167 C 263.622 50.167,263.500 50.228,263.500 50.302 C 263.500 50.497,262.196 51.167,261.818 51.167 C 261.643 51.167,261.500 51.242,261.500 51.333 C 261.500 51.425,261.354 51.500,261.177 51.500 C 260.999 51.500,260.807 51.575,260.750 51.667 C 260.693 51.758,260.389 51.833,260.073 51.833 C 259.758 51.833,259.500 51.908,259.500 52.000 C 259.500 52.092,259.129 52.167,258.677 52.167 C 258.224 52.167,257.807 52.242,257.750 52.333 C 257.693 52.425,256.981 52.500,256.167 52.500 C 255.352 52.500,254.640 52.575,254.583 52.667 C 254.519 52.771,252.748 52.833,249.823 52.833 L 245.167 52.833 245.167 38.833 L 245.167 24.833 250.333 24.833 C 253.667 24.833,255.500 24.892,255.500 25.000 M157.833 57.167 C 157.833 57.350,157.908 57.500,158.000 57.500 C 158.092 57.500,158.167 57.650,158.167 57.833 C 158.167 58.017,158.242 58.167,158.333 58.167 C 158.425 58.167,158.500 58.350,158.500 58.573 C 158.500 58.797,158.575 59.027,158.667 59.083 C 158.758 59.140,158.833 59.332,158.833 59.510 C 158.833 59.688,158.908 59.833,159.000 59.833 C 159.092 59.833,159.167 59.979,159.167 60.157 C 159.167 60.335,159.242 60.527,159.333 60.583 C 159.425 60.640,159.500 60.869,159.500 61.093 C 159.500 61.317,159.575 61.500,159.667 61.500 C 159.758 61.500,159.833 61.650,159.833 61.833 C 159.833 62.017,159.908 62.167,160.000 62.167 C 160.092 62.167,160.167 62.392,160.167 62.667 C 160.167 62.942,160.242 63.167,160.333 63.167 C 160.425 63.167,160.500 63.317,160.500 63.500 C 160.500 63.683,160.575 63.833,160.667 63.833 C 160.758 63.833,160.833 64.016,160.833 64.240 C 160.833 64.464,160.908 64.693,161.000 64.750 C 161.092 64.807,161.167 64.999,161.167 65.177 C 161.167 65.354,161.242 65.500,161.333 65.500 C 161.425 65.500,161.500 65.683,161.500 65.907 C 161.500 66.131,161.575 66.360,161.667 66.417 C 161.758 66.473,161.833 66.665,161.833 66.843 C 161.833 67.021,161.908 67.167,162.000 67.167 C 162.092 67.167,162.167 67.312,162.167 67.490 C 162.167 67.668,162.242 67.860,162.333 67.917 C 162.425 67.973,162.500 68.203,162.500 68.427 C 162.500 68.650,162.575 68.833,162.667 68.833 C 162.758 68.833,162.833 68.983,162.833 69.167 C 162.833 69.350,162.908 69.500,163.000 69.500 C 163.092 69.500,163.167 69.725,163.167 70.000 C 163.167 70.275,163.242 70.500,163.333 70.500 C 163.425 70.500,163.500 70.650,163.500 70.833 C 163.500 71.017,163.575 71.167,163.667 71.167 C 163.758 71.167,163.833 71.350,163.833 71.573 C 163.833 71.797,163.908 72.027,164.000 72.083 C 164.092 72.140,164.167 72.332,164.167 72.510 C 164.167 72.688,164.242 72.833,164.333 72.833 C 164.425 72.833,164.500 72.979,164.500 73.157 C 164.500 73.335,164.575 73.527,164.667 73.583 C 164.758 73.640,164.833 73.869,164.833 74.093 C 164.833 74.317,164.908 74.500,165.000 74.500 C 165.092 74.500,165.167 74.650,165.167 74.833 C 165.167 75.017,165.242 75.167,165.333 75.167 C 165.425 75.167,165.500 75.392,165.500 75.667 C 165.500 75.942,165.575 76.167,165.667 76.167 C 165.758 76.167,165.833 76.317,165.833 76.500 C 165.833 76.683,165.908 76.833,166.000 76.833 C 166.092 76.833,166.167 77.016,166.167 77.240 C 166.167 77.464,166.242 77.693,166.333 77.750 C 166.425 77.807,166.500 77.999,166.500 78.177 C 166.500 78.354,166.575 78.500,166.667 78.500 C 166.758 78.500,166.833 78.683,166.833 78.907 C 166.833 79.131,166.908 79.360,167.000 79.417 C 167.092 79.473,167.167 79.665,167.167 79.843 C 167.167 80.021,167.242 80.167,167.333 80.167 C 167.425 80.167,167.500 80.317,167.500 80.500 C 167.500 80.683,167.575 80.833,167.667 80.833 C 167.758 80.833,167.833 80.908,167.833 81.000 C 167.833 81.109,164.389 81.167,157.833 81.167 C 147.944 81.167,147.833 81.163,147.833 80.833 C 147.833 80.650,147.908 80.500,148.000 80.500 C 148.092 80.500,148.167 80.317,148.167 80.093 C 148.167 79.869,148.242 79.640,148.333 79.583 C 148.425 79.527,148.500 79.335,148.500 79.157 C 148.500 78.979,148.575 78.833,148.667 78.833 C 148.758 78.833,148.833 78.688,148.833 78.510 C 148.833 78.332,148.908 78.140,149.000 78.083 C 149.092 78.027,149.167 77.797,149.167 77.573 C 149.167 77.350,149.242 77.167,149.333 77.167 C 149.425 77.167,149.500 77.017,149.500 76.833 C 149.500 76.650,149.575 76.500,149.667 76.500 C 149.758 76.500,149.833 76.275,149.833 76.000 C 149.833 75.725,149.908 75.500,150.000 75.500 C 150.092 75.500,150.167 75.350,150.167 75.167 C 150.167 74.983,150.242 74.833,150.333 74.833 C 150.425 74.833,150.500 74.608,150.500 74.333 C 150.500 74.058,150.575 73.833,150.667 73.833 C 150.758 73.833,150.833 73.683,150.833 73.500 C 150.833 73.317,150.908 73.167,151.000 73.167 C 151.092 73.167,151.167 72.984,151.167 72.760 C 151.167 72.536,151.242 72.307,151.333 72.250 C 151.425 72.193,151.500 72.001,151.500 71.823 C 151.500 71.646,151.575 71.500,151.667 71.500 C 151.758 71.500,151.833 71.354,151.833 71.177 C 151.833 70.999,151.908 70.807,152.000 70.750 C 152.092 70.693,152.167 70.464,152.167 70.240 C 152.167 70.016,152.242 69.833,152.333 69.833 C 152.425 69.833,152.500 69.683,152.500 69.500 C 152.500 69.317,152.575 69.167,152.667 69.167 C 152.758 69.167,152.833 68.942,152.833 68.667 C 152.833 68.392,152.908 68.167,153.000 68.167 C 153.092 68.167,153.167 68.017,153.167 67.833 C 153.167 67.650,153.242 67.500,153.333 67.500 C 153.425 67.500,153.500 67.275,153.500 67.000 C 153.500 66.725,153.575 66.500,153.667 66.500 C 153.758 66.500,153.833 66.350,153.833 66.167 C 153.833 65.983,153.908 65.833,154.000 65.833 C 154.092 65.833,154.167 65.650,154.167 65.427 C 154.167 65.203,154.242 64.973,154.333 64.917 C 154.425 64.860,154.500 64.668,154.500 64.490 C 154.500 64.312,154.575 64.167,154.667 64.167 C 154.758 64.167,154.833 64.021,154.833 63.843 C 154.833 63.665,154.908 63.473,155.000 63.417 C 155.092 63.360,155.167 63.131,155.167 62.907 C 155.167 62.683,155.242 62.500,155.333 62.500 C 155.425 62.500,155.500 62.350,155.500 62.167 C 155.500 61.983,155.575 61.833,155.667 61.833 C 155.758 61.833,155.833 61.608,155.833 61.333 C 155.833 61.058,155.908 60.833,156.000 60.833 C 156.092 60.833,156.167 60.683,156.167 60.500 C 156.167 60.317,156.242 60.167,156.333 60.167 C 156.425 60.167,156.500 59.942,156.500 59.667 C 156.500 59.392,156.575 59.167,156.667 59.167 C 156.758 59.167,156.833 59.017,156.833 58.833 C 156.833 58.650,156.908 58.500,157.000 58.500 C 157.092 58.500,157.167 58.317,157.167 58.093 C 157.167 57.869,157.242 57.640,157.333 57.583 C 157.425 57.527,157.500 57.335,157.500 57.157 C 157.500 56.979,157.575 56.833,157.667 56.833 C 157.758 56.833,157.833 56.983,157.833 57.167 " stroke="none" fill="#fcfcfc" fill-rule="evenodd"></path><path id="path1" d="" stroke="none" fill="#100fcfc" fill-rule="evenodd"></path><path id="path2" d="" stroke="none" fill="#100fcfc" fill-rule="evenodd"></path><path id="path3" d="" stroke="none" fill="#100fcfc" fill-rule="evenodd"></path><path id="path4" d="" stroke="none" fill="#100fcfc" fill-rule="evenodd"></path></g></svg>